<?xml version="1.0" standalone="no"?>
<!DOCTYPE svg PUBLIC "-//W3C//DTD SVG 1.1//EN" "http://www.w3.org/Graphics/SVG/1.1/DTD/svg11.dtd" >
<!--
2013-9-30: Created.
-->
<svg>
<metadata>
Created by iconfont
</metadata>
<defs>

<font id="iconfont" horiz-adv-x="1024" >
  <font-face
    font-family="iconfont"
    font-weight="500"
    font-stretch="normal"
    units-per-em="1024"
    ascent="896"
    descent="-128"
  />
    <missing-glyph />
    
    <glyph glyph-name="ArrowRefresh2-24px" unicode="&#59076;" d="M525.909333 146.602667a235.392 235.392 0 0 0-77.141333 12.8 257.365333 257.365333 0 0 0-118.698667 88.96l-2.517333-7.850667a28.672 28.672 0 0 0-27.349333-20.224 29.269333 29.269333 0 0 0-9.728 1.706667 31.061333 31.061333 0 0 0-19.157334 38.4l22.570667 71.509333a28.714667 28.714667 0 0 0 27.221333 20.224 29.568 29.568 0 0 0 6.570667-0.725333l82.389333-19.072a31.061333 31.061333 0 0 0 23.168-36.053334 28.629333 28.629333 0 0 0-28.202666-23.466666 29.482667 29.482667 0 0 0-6.613334 0.768l-16.597333 3.882666a195.157333 195.157333 0 0 1 84.650667-61.098666 179.2 179.2 0 0 1 137.045333 9.045333 183.04 183.04 0 0 1 90.112 105.898667 28.672 28.672 0 0 0 27.349333 20.224 29.269333 29.269333 0 0 0 9.728-1.536 31.018667 31.018667 0 0 0 19.157334-38.4 242.261333 242.261333 0 0 0-119.253334-140.330667 232.661333 232.661333 0 0 0-104.704-24.661333z m174.933334 296.533333a29.312 29.312 0 0 0-6.485334 0.725333l-82.432 19.114667a31.146667 31.146667 0 0 0-23.168 36.096 28.586667 28.586667 0 0 0 28.202667 23.424 29.482667 29.482667 0 0 0 6.613333-0.768l16.725334-3.882667a194.773333 194.773333 0 0 1-84.522667 61.098667 179.2 179.2 0 0 1-136.96-9.088 184.32 184.32 0 0 1-90.24-105.898667 28.672 28.672 0 0 0-27.392-20.096 29.397333 29.397333 0 0 0-9.941333 1.536 31.104 31.104 0 0 0-19.157334 38.4 242.56 242.56 0 0 0 119.466667 140.288 237.056 237.056 0 0 0 182.058667 11.776 257.536 257.536 0 0 0 118.698666-89.002666l2.304 7.936a28.629333 28.629333 0 0 0 27.349334 20.224 29.269333 29.269333 0 0 0 9.770666-1.706667 31.061333 31.061333 0 0 0 19.157334-38.4l-22.570667-71.509333a28.629333 28.629333 0 0 0-27.477333-20.266667z"  horiz-adv-x="1024" />

    
    <glyph glyph-name="Ztubiao" unicode="&#58942;" d="M192 512h640a42.666667 42.666667 0 0 0 42.666667-42.666667v-362.666666a42.666667 42.666667 0 0 0-42.666667-42.666667H192v-106.666667a21.333333 21.333333 0 0 1 21.333333-21.333333h725.333334a21.333333 21.333333 0 0 1 21.333333 21.333333V587.178667L949.909333 597.333333h-126.528A98.048 98.048 0 0 0 725.333333 695.381333V823.338667L716.714667 832H213.333333a21.333333 21.333333 0 0 1-21.333333-21.333333v-298.666667zM128 64H42.666667a42.666667 42.666667 0 0 0-42.666667 42.666667V469.333333a42.666667 42.666667 0 0 0 42.666667 42.666667h85.333333V810.666667a85.333333 85.333333 0 0 0 85.333333 85.333333h530.026667L1024 613.546667V-42.666667a85.333333 85.333333 0 0 0-85.333333-85.333333H213.333333a85.333333 85.333333 0 0 0-85.333333 85.333333v106.666667z m91.989333 359.509333v-40.704h140.16L261.845333 149.333333h47.616l96 238.08v36.096h-185.472z m221.952 0v-38.4h147.072l-158.592-200.448V149.333333h226.176v38.4H489.173333l158.208 200.064v35.712h-205.44z"  horiz-adv-x="1024" />

    
    <glyph glyph-name="AItubiao" unicode="&#58943;" d="M192 512h640a42.666667 42.666667 0 0 0 42.666667-42.666667v-362.666666a42.666667 42.666667 0 0 0-42.666667-42.666667H192v-106.666667a21.333333 21.333333 0 0 1 21.333333-21.333333h725.333334a21.333333 21.333333 0 0 1 21.333333 21.333333V587.178667L949.909333 597.333333h-126.528A98.048 98.048 0 0 0 725.333333 695.381333V823.338667L716.714667 832H213.333333a21.333333 21.333333 0 0 1-21.333333-21.333333v-298.666667zM128 64H42.666667a42.666667 42.666667 0 0 0-42.666667 42.666667V469.333333a42.666667 42.666667 0 0 0 42.666667 42.666667h85.333333V810.666667a85.333333 85.333333 0 0 0 85.333333 85.333333h530.026667L1024 613.546667V-42.666667a85.333333 85.333333 0 0 0-85.333333-85.333333H213.333333a85.333333 85.333333 0 0 0-85.333333 85.333333v106.666667z m213.12 359.509333L236.288 149.333333h48l24.96 68.736h114.816L449.024 149.333333h48l-104.832 274.176H341.12z m-18.432-168.576l43.392 120.192h1.536l43.008-120.192h-87.936z m201.216 168.576V149.333333h44.928V423.509333h-44.928z"  horiz-adv-x="1024" />

    
    <glyph glyph-name="AVItubiao" unicode="&#58945;" d="M192 512h640a42.666667 42.666667 0 0 0 42.666667-42.666667v-362.666666a42.666667 42.666667 0 0 0-42.666667-42.666667H192v-106.666667a21.333333 21.333333 0 0 1 21.333333-21.333333h725.333334a21.333333 21.333333 0 0 1 21.333333 21.333333V587.178667L949.909333 597.333333h-126.528A98.048 98.048 0 0 0 725.333333 695.381333V823.338667L716.714667 832H213.333333a21.333333 21.333333 0 0 1-21.333333-21.333333v-298.666667zM128 64H42.666667a42.666667 42.666667 0 0 0-42.666667 42.666667V469.333333a42.666667 42.666667 0 0 0 42.666667 42.666667h85.333333V810.666667a85.333333 85.333333 0 0 0 85.333333 85.333333h530.026667L1024 613.546667V-42.666667a85.333333 85.333333 0 0 0-85.333333-85.333333H213.333333a85.333333 85.333333 0 0 0-85.333333 85.333333v106.666667z m107.925333 359.509333L131.093333 149.333333h48l24.96 68.736h114.816L343.829333 149.333333h48l-104.832 274.176h-51.072z m-18.432-168.576l43.392 120.192h1.536l43.008-120.192h-87.936z m176.256 168.576L491.285333 149.333333h54.144l97.536 274.176h-48.768l-75.264-223.488h-1.152l-75.264 223.488h-48.768z m278.016 0V149.333333h44.928V423.509333h-44.928z"  horiz-adv-x="1024" />

    
    <glyph glyph-name="BMPtubiao" unicode="&#58946;" d="M192 512h640a42.666667 42.666667 0 0 0 42.666667-42.666667v-362.666666a42.666667 42.666667 0 0 0-42.666667-42.666667H192v-106.666667a21.333333 21.333333 0 0 1 21.333333-21.333333h725.333334a21.333333 21.333333 0 0 1 21.333333 21.333333V587.178667L949.909333 597.333333h-126.528A98.048 98.048 0 0 0 725.333333 695.381333V823.338667L716.714667 832H213.333333a21.333333 21.333333 0 0 1-21.333333-21.333333v-298.666667zM128 64H42.666667a42.666667 42.666667 0 0 0-42.666667 42.666667V469.333333a42.666667 42.666667 0 0 0 42.666667 42.666667h85.333333V810.666667a85.333333 85.333333 0 0 0 85.333333 85.333333h530.026667L1024 613.546667V-42.666667a85.333333 85.333333 0 0 0-85.333333-85.333333H213.333333a85.333333 85.333333 0 0 0-85.333333 85.333333v106.666667zM85.333333 423.509333V149.333333h110.762667c25.664 0 45.930667 5.376 60.096 16.128 16.554667 13.056 25.002667 33.408 25.002667 61.056 0 18.432-4.053333 33.408-11.818667 44.16-8.106667 11.136-19.925333 18.432-35.797333 21.888 12.16 5.376 21.269333 12.672 27.690666 22.656 6.4 10.752 9.792 23.808 9.792 39.168 0 20.736-6.421333 37.248-18.922666 49.536-13.504 13.056-32.426667 19.584-56.384 19.584H85.333333z m39.509334-36.864h61.12c16.213333 0 27.690667-3.072 35.114666-9.216 6.762667-5.76 10.453333-15.36 10.453334-28.416 0-14.208-3.690667-24.576-10.453334-31.104-7.082667-6.144-18.901333-9.6-35.797333-9.6H124.842667v78.336z m0-115.2H191.36c17.557333 0 30.4-3.456 38.506667-10.368 7.765333-6.912 11.818667-18.048 11.818666-33.792 0-15.36-5.418667-26.112-16.213333-33.024-8.448-5.376-20.266667-8.064-35.114667-8.064H124.842667v85.248z m193.493333 152.064V149.333333h39.509333v188.928h1.344L430.101333 149.333333h34.112l70.912 188.928h1.344V149.333333H576V423.509333h-46.250667L448 208.469333h-1.344l-82.069333 215.04h-46.250667z m304.917333 0V149.333333h39.509334v105.216h59.776c58.752 0 88.128 28.416 88.128 84.864 0 56.064-29.376 84.096-87.466667 84.096h-99.946667z m39.509334-38.4h57.386666c17.237333 0 30.08-3.456 38.186667-10.752 8.106667-6.912 12.48-18.432 12.48-34.944 0-16.512-4.053333-28.416-12.16-35.712-8.106667-6.912-20.928-10.752-38.485333-10.752h-57.408v92.16z"  horiz-adv-x="1024" />

    
    <glyph glyph-name="EPStubiao" unicode="&#58947;" d="M192 512h640a42.666667 42.666667 0 0 0 42.666667-42.666667v-362.666666a42.666667 42.666667 0 0 0-42.666667-42.666667H192v-106.666667a21.333333 21.333333 0 0 1 21.333333-21.333333h725.333334a21.333333 21.333333 0 0 1 21.333333 21.333333V587.178667L949.909333 597.333333h-126.528A98.048 98.048 0 0 0 725.333333 695.381333V823.338667L716.714667 832H213.333333a21.333333 21.333333 0 0 1-21.333333-21.333333v-298.666667zM128 64H42.666667a42.666667 42.666667 0 0 0-42.666667 42.666667V469.333333a42.666667 42.666667 0 0 0 42.666667 42.666667h85.333333V810.666667a85.333333 85.333333 0 0 0 85.333333 85.333333h530.026667L1024 613.546667V-42.666667a85.333333 85.333333 0 0 0-85.333333-85.333333H213.333333a85.333333 85.333333 0 0 0-85.333333 85.333333v106.666667zM106.666667 423.509333V149.333333h196.522666v38.4H149.888v82.944h138.154667v38.4H149.888v76.032h147.029333v38.4H106.666667z m237.162666 0V149.333333h43.221334v105.216h65.386666c64.277333 0 96.426667 28.416 96.426667 84.864 0 56.064-32.149333 84.096-95.701333 84.096h-109.333334z m43.221334-38.4h62.805333c18.837333 0 32.853333-3.456 41.728-10.752 8.874667-6.912 13.674667-18.432 13.674667-34.944 0-16.512-4.437333-28.416-13.290667-35.712-8.874667-6.912-22.912-10.752-42.112-10.752h-62.805333v92.16z m291.84 43.776c-28.458667 0-51.733333-6.528-70.186667-19.968-19.968-13.824-29.568-33.024-29.568-57.216s9.984-42.624 30.293333-55.296c7.765333-4.608 28.074667-12.288 60.586667-23.04 29.184-9.216 46.165333-15.36 51.349333-18.048 16.256-8.448 24.746667-19.968 24.746667-34.56 0-11.52-5.909333-20.352-17.002667-27.264-11.072-6.528-26.581333-9.984-45.802666-9.984-21.781333 0-37.674667 4.224-48 11.904-11.477333 8.832-18.496 23.808-21.44 44.544h-42.858667c1.856-34.944 14.037333-60.288 36.202667-76.416 18.112-13.056 43.584-19.584 76.096-19.584 33.621333 0 59.84 7.296 78.314666 21.12 18.474667 14.208 27.712 33.792 27.712 58.368 0 25.344-11.456 44.928-34.346666 59.136-10.346667 6.144-33.258667 15.36-69.077334 26.88-24.384 8.064-39.530667 13.824-45.077333 16.896-12.565333 6.912-18.474667 16.512-18.474667 28.032 0 13.056 5.184 22.656 16.256 28.416 8.874667 4.992 21.418667 7.296 38.058667 7.296 19.2 0 33.984-3.456 43.584-11.136 9.6-7.296 16.64-19.584 20.309333-36.48h42.858667c-2.581333 29.952-13.290667 52.224-31.786667 66.432-17.344 13.44-41.728 19.968-72.746666 19.968z"  horiz-adv-x="1024" />

    
    <glyph glyph-name="EXEtubiao" unicode="&#58948;" d="M192 512h640a42.666667 42.666667 0 0 0 42.666667-42.666667v-362.666666a42.666667 42.666667 0 0 0-42.666667-42.666667H192v-106.666667a21.333333 21.333333 0 0 1 21.333333-21.333333h725.333334a21.333333 21.333333 0 0 1 21.333333 21.333333V587.178667L949.909333 597.333333h-126.528A98.048 98.048 0 0 0 725.333333 695.381333V823.338667L716.714667 832H213.333333a21.333333 21.333333 0 0 1-21.333333-21.333333v-298.666667zM128 64H42.666667a42.666667 42.666667 0 0 0-42.666667 42.666667V469.333333a42.666667 42.666667 0 0 0 42.666667 42.666667h85.333333V810.666667a85.333333 85.333333 0 0 0 85.333333 85.333333h530.026667L1024 613.546667V-42.666667a85.333333 85.333333 0 0 0-85.333333-85.333333H213.333333a85.333333 85.333333 0 0 0-85.333333 85.333333v106.666667zM90.197333 423.509333V149.333333h204.288v38.4h-159.36v82.944h143.616v38.4H135.125333v76.032h152.832v38.4h-197.76z m227.712 0l91.776-132.48L311.765333 149.333333h54.912l70.656 105.984L507.989333 149.333333h54.912l-98.688 141.696 92.544 132.48h-54.912L437.333333 326.741333l-64.512 96.768h-54.912z m273.792 0V149.333333h204.288v38.4h-159.36v82.944h143.616v38.4h-143.616v76.032h152.832v38.4h-197.76z"  horiz-adv-x="1024" />

    
    <glyph glyph-name="FLVtubiao" unicode="&#58949;" d="M192 512h640a42.666667 42.666667 0 0 0 42.666667-42.666667v-362.666666a42.666667 42.666667 0 0 0-42.666667-42.666667H192v-106.666667a21.333333 21.333333 0 0 1 21.333333-21.333333h725.333334a21.333333 21.333333 0 0 1 21.333333 21.333333V587.178667L949.909333 597.333333h-126.528A98.048 98.048 0 0 0 725.333333 695.381333V823.338667L716.714667 832H213.333333a21.333333 21.333333 0 0 1-21.333333-21.333333v-298.666667zM128 64H42.666667a42.666667 42.666667 0 0 0-42.666667 42.666667V469.333333a42.666667 42.666667 0 0 0 42.666667 42.666667h85.333333V810.666667a85.333333 85.333333 0 0 0 85.333333 85.333333h530.026667L1024 613.546667V-42.666667a85.333333 85.333333 0 0 0-85.333333-85.333333H213.333333a85.333333 85.333333 0 0 0-85.333333 85.333333v106.666667z m-15.722667 359.509333V149.333333h44.928v121.344h134.016v38.4H157.205333v76.032h142.08v38.4H112.277333z m223.488 0V149.333333h192.768v38.4h-148.224V423.509333h-44.544z m202.368 0L635.669333 149.333333h54.144l97.536 274.176h-48.768l-75.264-223.488h-1.152l-75.264 223.488h-48.768z"  horiz-adv-x="1024" />

    
    <glyph glyph-name="DOCtubiao" unicode="&#58950;" d="M192 512h640a42.666667 42.666667 0 0 0 42.666667-42.666667v-362.666666a42.666667 42.666667 0 0 0-42.666667-42.666667H192v-106.666667a21.333333 21.333333 0 0 1 21.333333-21.333333h725.333334a21.333333 21.333333 0 0 1 21.333333 21.333333V587.178667L949.909333 597.333333h-126.528A98.048 98.048 0 0 0 725.333333 695.381333V823.338667L716.714667 832H213.333333a21.333333 21.333333 0 0 1-21.333333-21.333333v-298.666667zM128 64H42.666667a42.666667 42.666667 0 0 0-42.666667 42.666667V469.333333a42.666667 42.666667 0 0 0 42.666667 42.666667h85.333333V810.666667a85.333333 85.333333 0 0 0 85.333333 85.333333h530.026667L1024 613.546667V-42.666667a85.333333 85.333333 0 0 0-85.333333-85.333333H213.333333a85.333333 85.333333 0 0 0-85.333333 85.333333v106.666667zM65.92 423.509333V149.333333h91.349333c40.597333 0 71.04 12.288 92.053334 36.864 19.946667 23.424 30.101333 56.832 30.101333 100.224 0 43.776-10.154667 77.184-30.101333 100.224-20.992 24.576-51.456 36.864-92.053334 36.864H65.92z m40.96-38.4H149.546667c31.146667 0 53.909333-7.68 68.266666-23.424 13.994667-15.36 20.992-40.704 20.992-75.264 0-33.792-6.997333-58.752-21.013333-74.88-14.336-15.744-37.098667-23.808-68.245333-23.808H106.88v197.376z m322.005333 43.776c-38.506667 0-68.608-13.44-90.304-41.088-21.013333-26.112-31.146667-59.904-31.146666-101.76 0-41.472 10.133333-75.264 31.146666-101.376 21.696-26.88 51.797333-40.704 90.304-40.704 38.144 0 68.245333 13.44 90.304 40.32 20.992 25.728 31.488 59.52 31.488 101.76 0 42.24-10.496 76.416-31.488 102.144-22.058667 27.264-52.16 40.704-90.304 40.704z m0-39.552c25.898667 0 45.845333-8.832 59.84-27.264 13.653333-18.432 20.650667-43.776 20.650667-76.032s-6.997333-57.216-20.650667-75.264c-13.994667-18.048-33.941333-27.264-59.84-27.264-25.898667 0-46.208 9.6-60.202666 28.416-13.653333 18.432-20.309333 43.008-20.309334 74.112 0 31.488 6.656 56.064 20.309334 74.496 14.336 19.2 34.304 28.8 60.202666 28.8z m268.8 39.552c-39.893333 0-70.357333-14.208-91.349333-43.392-18.56-25.344-27.648-58.752-27.648-99.456 0-41.472 8.746667-74.496 26.602667-99.072 20.288-28.416 51.434667-43.008 93.098666-43.008 26.944 0 50.048 8.448 69.290667 25.344 20.650667 18.048 33.6 43.008 39.210667 75.264h-39.893334c-4.906667-20.736-13.312-36.48-25.216-46.848-11.2-9.216-25.898667-14.208-43.733333-14.208-27.306667 0-47.616 9.6-60.565333 28.032-11.904 17.28-17.856 42.24-17.856 74.496 0 31.488 5.973333 56.064 18.218666 73.728 13.290667 19.968 32.896 29.568 59.136 29.568 17.493333 0 31.850667-3.84 43.050667-12.288 11.562667-8.448 19.264-21.504 23.466667-39.552h39.893333c-3.84 27.648-14.72 49.92-32.896 66.048-18.901333 16.896-43.413333 25.344-72.810667 25.344z"  horiz-adv-x="1024" />

    
    <glyph glyph-name="GIFtubiao" unicode="&#58951;" d="M192 512h640a42.666667 42.666667 0 0 0 42.666667-42.666667v-362.666666a42.666667 42.666667 0 0 0-42.666667-42.666667H192v-106.666667a21.333333 21.333333 0 0 1 21.333333-21.333333h725.333334a21.333333 21.333333 0 0 1 21.333333 21.333333V587.178667L949.909333 597.333333h-126.528A98.048 98.048 0 0 0 725.333333 695.381333V823.338667L716.714667 832H213.333333a21.333333 21.333333 0 0 1-21.333333-21.333333v-298.666667zM128 64H42.666667a42.666667 42.666667 0 0 0-42.666667 42.666667V469.333333a42.666667 42.666667 0 0 0 42.666667 42.666667h85.333333V810.666667a85.333333 85.333333 0 0 0 85.333333 85.333333h530.026667L1024 613.546667V-42.666667a85.333333 85.333333 0 0 0-85.333333-85.333333H213.333333a85.333333 85.333333 0 0 0-85.333333 85.333333v106.666667z m149.013333 364.885333c-40.704 0-72.96-13.824-96.768-42.24-22.656-26.496-33.792-60.288-33.792-101.376 0-40.704 11.136-74.112 33.792-99.84 24.192-27.648 57.984-41.472 101.76-41.472 24.576 0 46.464 3.072 66.432 9.216 18.816 6.144 35.328 14.592 49.92 26.112V295.253333h-117.504v-38.4h72.576v-56.448c-9.216-5.376-18.816-9.6-29.568-12.672a142.570667 142.570667 0 0 0-36.864-4.608c-33.408 0-57.984 9.216-73.728 27.648-14.592 17.28-21.888 42.24-21.888 74.496 0 33.792 8.064 59.52 24.576 77.952 14.976 17.664 35.328 26.112 61.056 26.112 20.736 0 37.632-4.224 50.304-13.056 12.288-8.832 20.736-21.888 24.576-39.552h45.312c-4.992 30.72-17.28 53.376-36.864 68.736-20.352 15.744-48 23.424-83.328 23.424z m171.264-5.376V149.333333h44.928V423.509333h-44.928z m98.688 0V149.333333h44.928v121.344h134.016v38.4h-134.016v76.032h142.08v38.4h-187.008z"  horiz-adv-x="1024" />

    
    <glyph glyph-name="MOVtubiao" unicode="&#58952;" d="M192 512h640a42.666667 42.666667 0 0 0 42.666667-42.666667v-362.666666a42.666667 42.666667 0 0 0-42.666667-42.666667H192v-106.666667a21.333333 21.333333 0 0 1 21.333333-21.333333h725.333334a21.333333 21.333333 0 0 1 21.333333 21.333333V587.178667L949.909333 597.333333h-126.528A98.048 98.048 0 0 0 725.333333 695.381333V823.338667L716.714667 832H213.333333a21.333333 21.333333 0 0 1-21.333333-21.333333v-298.666667zM128 64H42.666667a42.666667 42.666667 0 0 0-42.666667 42.666667V469.333333a42.666667 42.666667 0 0 0 42.666667 42.666667h85.333333V810.666667a85.333333 85.333333 0 0 0 85.333333 85.333333h530.026667L1024 613.546667V-42.666667a85.333333 85.333333 0 0 0-85.333333-85.333333H213.333333a85.333333 85.333333 0 0 0-85.333333 85.333333v106.666667zM74.666667 423.509333V149.333333h38.613333v188.928h1.322667L183.936 149.333333h33.322667l69.333333 188.928h1.322667V149.333333h38.613333V423.509333h-45.226667l-79.872-215.04H200.106667l-80.213334 215.04H74.666667z m402.709333 5.376c-36.309333 0-64.704-13.44-85.162667-41.088-19.797333-26.112-29.376-59.904-29.376-101.76 0-41.472 9.578667-75.264 29.376-101.376 20.48-26.88 48.853333-40.704 85.162667-40.704 35.989333 0 64.362667 13.44 85.162667 40.32 19.818667 25.728 29.717333 59.52 29.717333 101.76 0 42.24-9.898667 76.416-29.717333 102.144-20.8 27.264-49.173333 40.704-85.162667 40.704z m0-39.552c24.426667 0 43.242667-8.832 56.448-27.264 12.864-18.432 19.477333-43.776 19.477333-76.032s-6.613333-57.216-19.477333-75.264c-13.205333-18.048-32-27.264-56.448-27.264-24.426667 0-43.562667 9.6-56.768 28.416-12.885333 18.432-19.157333 43.008-19.157333 74.112 0 31.488 6.272 56.064 19.157333 74.496 13.525333 19.2 32.341333 28.8 56.768 28.8z m129.728 34.176L690.944 149.333333h46.549333l83.84 274.176h-41.92l-64.704-223.488h-0.981333l-64.704 223.488h-41.92z"  horiz-adv-x="1024" />

    
    <glyph glyph-name="HTMLtubiao" unicode="&#58953;" d="M192 512h640a42.666667 42.666667 0 0 0 42.666667-42.666667v-362.666666a42.666667 42.666667 0 0 0-42.666667-42.666667H192v-106.666667a21.333333 21.333333 0 0 1 21.333333-21.333333h725.333334a21.333333 21.333333 0 0 1 21.333333 21.333333V587.178667L949.909333 597.333333h-126.528A98.048 98.048 0 0 0 725.333333 695.381333V823.338667L716.714667 832H213.333333a21.333333 21.333333 0 0 1-21.333333-21.333333v-298.666667zM128 64H42.666667a42.666667 42.666667 0 0 0-42.666667 42.666667V469.333333a42.666667 42.666667 0 0 0 42.666667 42.666667h85.333333V810.666667a85.333333 85.333333 0 0 0 85.333333 85.333333h530.026667L1024 613.546667V-42.666667a85.333333 85.333333 0 0 0-85.333333-85.333333H213.333333a85.333333 85.333333 0 0 0-85.333333 85.333333v106.666667zM64 423.509333V149.333333h37.226667v121.344h93.866666V149.333333h37.248V423.509333H195.093333v-114.432h-93.866666v114.432H64z m195.370667 0v-38.4h52.544V149.333333h37.248V385.109333h52.522666v38.4h-142.293333z m169.386666 0V149.333333h37.226667v188.928h1.28L534.058667 149.333333h32.128l66.837333 188.928h1.28V149.333333h37.226667V423.509333h-43.605334l-77.013333-215.04h-1.28l-77.312 215.04h-43.605333z m287.36 0V149.333333H832v38.4h-78.976V423.509333h-36.906667z"  horiz-adv-x="1024" />

    
    <glyph glyph-name="MPtubiao" unicode="&#58954;" d="M192 512h640a42.666667 42.666667 0 0 0 42.666667-42.666667v-362.666666a42.666667 42.666667 0 0 0-42.666667-42.666667H192v-106.666667a21.333333 21.333333 0 0 1 21.333333-21.333333h725.333334a21.333333 21.333333 0 0 1 21.333333 21.333333V587.178667L949.909333 597.333333h-126.528A98.048 98.048 0 0 0 725.333333 695.381333V823.338667L716.714667 832H213.333333a21.333333 21.333333 0 0 1-21.333333-21.333333v-298.666667zM128 64H42.666667a42.666667 42.666667 0 0 0-42.666667 42.666667V469.333333a42.666667 42.666667 0 0 0 42.666667 42.666667h85.333333V810.666667a85.333333 85.333333 0 0 0 85.333333 85.333333h530.026667L1024 613.546667V-42.666667a85.333333 85.333333 0 0 0-85.333333-85.333333H213.333333a85.333333 85.333333 0 0 0-85.333333 85.333333v106.666667zM88.064 423.509333V149.333333h40.618667v188.928h1.386666L202.944 149.333333h35.072l72.874667 188.928h1.386666V149.333333h40.618667V423.509333h-47.573333l-83.968-215.04h-1.408l-84.330667 215.04H88.064z m313.429333 0V149.333333h40.597334v105.216h61.44c60.373333 0 90.581333 28.416 90.581333 84.864 0 56.064-30.186667 84.096-89.898667 84.096H401.493333z m40.597334-38.4h59.008c17.706667 0 30.890667-3.456 39.210666-10.752 8.32-6.912 12.842667-18.432 12.842667-34.944 0-16.512-4.16-28.416-12.48-35.712-8.32-6.912-21.525333-10.752-39.573333-10.752h-59.008v92.16z m290.176 38.4l-121.152-172.8v-42.624h119.744V149.333333h38.528v58.752h36.8v35.712h-36.8v179.712h-37.12z m-2.432-56.832h1.024v-122.88h-86.762667l85.738667 122.88z"  horiz-adv-x="1024" />

    
    <glyph glyph-name="PDFtubiao" unicode="&#58955;" d="M192 512h640a42.666667 42.666667 0 0 0 42.666667-42.666667v-362.666666a42.666667 42.666667 0 0 0-42.666667-42.666667H192v-106.666667a21.333333 21.333333 0 0 1 21.333333-21.333333h725.333334a21.333333 21.333333 0 0 1 21.333333 21.333333V587.178667L949.909333 597.333333h-126.528A98.048 98.048 0 0 0 725.333333 695.381333V823.338667L716.714667 832H213.333333a21.333333 21.333333 0 0 1-21.333333-21.333333v-298.666667zM128 64H42.666667a42.666667 42.666667 0 0 0-42.666667 42.666667V469.333333a42.666667 42.666667 0 0 0 42.666667 42.666667h85.333333V810.666667a85.333333 85.333333 0 0 0 85.333333 85.333333h530.026667L1024 613.546667V-42.666667a85.333333 85.333333 0 0 0-85.333333-85.333333H213.333333a85.333333 85.333333 0 0 0-85.333333 85.333333v106.666667zM88.469333 423.509333V149.333333h44.928v105.216h67.968c66.816 0 100.224 28.416 100.224 84.864 0 56.064-33.408 84.096-99.456 84.096H88.469333z m44.928-38.4h65.28c19.584 0 34.176-3.456 43.392-10.752 9.216-6.912 14.208-18.432 14.208-34.944 0-16.512-4.608-28.416-13.824-35.712-9.216-6.912-23.808-10.752-43.776-10.752h-65.28v92.16z m206.592 38.4V149.333333h100.224c44.544 0 77.952 12.288 100.992 36.864 21.888 23.424 33.024 56.832 33.024 100.224 0 43.776-11.136 77.184-33.024 100.224-23.04 24.576-56.448 36.864-100.992 36.864h-100.224z m44.928-38.4h46.848c34.176 0 59.136-7.68 74.88-23.424 15.36-15.36 23.04-40.704 23.04-75.264 0-33.792-7.68-58.752-23.04-74.88-15.744-15.744-40.704-23.808-74.88-23.808h-46.848v197.376z m231.552 38.4V149.333333h44.928v121.344h134.016v38.4h-134.016v76.032h142.08v38.4h-187.008z"  horiz-adv-x="1024" />

    
    <glyph glyph-name="MPtubiao1" unicode="&#58956;" d="M192 512h640a42.666667 42.666667 0 0 0 42.666667-42.666667v-362.666666a42.666667 42.666667 0 0 0-42.666667-42.666667H192v-106.666667a21.333333 21.333333 0 0 1 21.333333-21.333333h725.333334a21.333333 21.333333 0 0 1 21.333333 21.333333V587.178667L949.909333 597.333333h-126.528A98.048 98.048 0 0 0 725.333333 695.381333V823.338667L716.714667 832H213.333333a21.333333 21.333333 0 0 1-21.333333-21.333333v-298.666667zM128 64H42.666667a42.666667 42.666667 0 0 0-42.666667 42.666667V469.333333a42.666667 42.666667 0 0 0 42.666667 42.666667h85.333333V810.666667a85.333333 85.333333 0 0 0 85.333333 85.333333h530.026667L1024 613.546667V-42.666667a85.333333 85.333333 0 0 0-85.333333-85.333333H213.333333a85.333333 85.333333 0 0 0-85.333333 85.333333v106.666667zM84.224 423.509333V149.333333H125.226667v188.928h1.408L200.234667 149.333333h35.413333l73.6 188.928h1.386667V149.333333h41.002666V423.509333h-48l-84.821333-215.04h-1.408l-85.162667 215.04H84.224z m316.48 0V149.333333h41.002667v105.216h62.037333c60.970667 0 91.477333 28.416 91.477333 84.864 0 56.064-30.506667 84.096-90.773333 84.096h-103.744z m41.002667-38.4h59.584c17.877333 0 31.189333-3.456 39.594666-10.752 8.426667-6.912 12.970667-18.432 12.970667-34.944 0-16.512-4.202667-28.416-12.608-35.712-8.426667-6.912-21.738667-10.752-39.957333-10.752h-59.584v92.16z m271.616 43.776c-24.533333 0-44.864-7.296-60.629334-22.656-16.832-15.36-25.941333-36.864-28.032-64.512h40.298667c1.408 16.512 6.314667 28.8 14.72 36.864 8.064 8.064 19.285333 11.904 34.005333 11.904 14.357333 0 25.216-3.456 32.576-10.368 6.677333-6.912 10.176-16.896 10.176-30.336 0-13.44-3.84-23.808-11.221333-30.72-7.701333-6.912-18.922667-10.368-33.642667-10.368h-17.514666v-33.792h17.514666c16.128 0 28.373333-3.456 36.8-11.136 8.405333-7.296 12.970667-18.816 12.970667-34.56 0-13.056-4.202667-23.808-12.266667-32.64-9.109333-9.6-21.738667-14.592-37.504-14.592-14.378667 0-25.941333 4.608-34.688 13.44-9.813333 9.6-14.72 23.424-15.424 41.088H619.733333c2.090667-30.72 11.904-54.528 29.44-70.656 15.765333-14.592 36.8-21.888 62.72-21.888 27.349333 0 49.429333 8.448 66.24 24.96 16.128 16.128 24.192 36.864 24.192 62.208 0 16.128-4.202667 29.568-12.608 39.936-7.722667 9.984-19.285333 17.28-34.005333 22.272 27.690667 9.984 41.706667 29.952 41.706667 59.904 0 23.808-7.701333 42.24-22.784 55.68-15.424 13.44-36.096 19.968-61.333334 19.968z"  horiz-adv-x="1024" />

    
    <glyph glyph-name="PPTtubiao" unicode="&#58957;" d="M192 512h640a42.666667 42.666667 0 0 0 42.666667-42.666667v-362.666666a42.666667 42.666667 0 0 0-42.666667-42.666667H192v-106.666667a21.333333 21.333333 0 0 1 21.333333-21.333333h725.333334a21.333333 21.333333 0 0 1 21.333333 21.333333V587.178667L949.909333 597.333333h-126.528A98.048 98.048 0 0 0 725.333333 695.381333V823.338667L716.714667 832H213.333333a21.333333 21.333333 0 0 1-21.333333-21.333333v-298.666667zM128 64H42.666667a42.666667 42.666667 0 0 0-42.666667 42.666667V469.333333a42.666667 42.666667 0 0 0 42.666667 42.666667h85.333333V810.666667a85.333333 85.333333 0 0 0 85.333333 85.333333h530.026667L1024 613.546667V-42.666667a85.333333 85.333333 0 0 0-85.333333-85.333333H213.333333a85.333333 85.333333 0 0 0-85.333333 85.333333v106.666667zM94.613333 423.509333V149.333333h44.928v105.216h67.968c66.816 0 100.224 28.416 100.224 84.864 0 56.064-33.408 84.096-99.456 84.096H94.613333z m44.928-38.4h65.28c19.584 0 34.176-3.456 43.392-10.752 9.216-6.912 14.208-18.432 14.208-34.944 0-16.512-4.608-28.416-13.824-35.712-9.216-6.912-23.808-10.752-43.776-10.752h-65.28v92.16z m206.592 38.4V149.333333h44.928v105.216h67.968c66.816 0 100.224 28.416 100.224 84.864 0 56.064-33.408 84.096-99.456 84.096h-113.664z m44.928-38.4h65.28c19.584 0 34.176-3.456 43.392-10.752 9.216-6.912 14.208-18.432 14.208-34.944 0-16.512-4.608-28.416-13.824-35.712-9.216-6.912-23.808-10.752-43.776-10.752h-65.28v92.16z m185.472 38.4v-38.4h89.856V149.333333h44.928V385.109333h89.856v38.4h-224.64z"  horiz-adv-x="1024" />

    
    <glyph glyph-name="PNGtubiao" unicode="&#58958;" d="M192 512h640a42.666667 42.666667 0 0 0 42.666667-42.666667v-362.666666a42.666667 42.666667 0 0 0-42.666667-42.666667H192v-106.666667a21.333333 21.333333 0 0 1 21.333333-21.333333h725.333334a21.333333 21.333333 0 0 1 21.333333 21.333333V587.178667L949.909333 597.333333h-126.528A98.048 98.048 0 0 0 725.333333 695.381333V823.338667L716.714667 832H213.333333a21.333333 21.333333 0 0 1-21.333333-21.333333v-298.666667zM128 64H42.666667a42.666667 42.666667 0 0 0-42.666667 42.666667V469.333333a42.666667 42.666667 0 0 0 42.666667 42.666667h85.333333V810.666667a85.333333 85.333333 0 0 0 85.333333 85.333333h530.026667L1024 613.546667V-42.666667a85.333333 85.333333 0 0 0-85.333333-85.333333H213.333333a85.333333 85.333333 0 0 0-85.333333 85.333333v106.666667zM92.309333 423.509333V149.333333h40.32v105.216h61.013334c59.989333 0 89.962667 28.416 89.962666 84.864 0 56.064-29.973333 84.096-89.28 84.096H92.309333z m40.32-38.4h58.602667c17.578667 0 30.677333-3.456 38.954667-10.752 8.277333-6.912 12.757333-18.432 12.757333-34.944 0-16.512-4.138667-28.416-12.416-35.712-8.277333-6.912-21.376-10.752-39.296-10.752H132.629333v92.16z m185.450667 38.4V149.333333h40.32v200.448h1.386667L482.858667 149.333333h39.296V423.509333H481.493333v-197.76h-1.365333l-121.685333 197.76h-40.32z m359.189333 5.376c-36.522667 0-65.493333-13.824-86.869333-42.24-20.330667-26.496-30.314667-60.288-30.314667-101.376 0-40.704 9.984-74.112 30.314667-99.84 21.717333-27.648 52.053333-41.472 91.349333-41.472 22.08 0 41.728 3.072 59.648 9.216a138.026667 138.026667 0 0 1 44.8 26.112V295.253333H680.746667v-38.4h65.152v-56.448a108.373333 108.373333 0 0 0-26.538667-12.672 115.669333 115.669333 0 0 0-33.088-4.608c-29.994667 0-52.053333 9.216-66.197333 27.648-13.098667 17.28-19.626667 42.24-19.626667 74.496 0 33.792 7.210667 59.52 22.037333 77.952 13.44 17.664 31.722667 26.112 54.826667 26.112 18.602667 0 33.770667-4.224 45.141333-13.056 11.029333-8.832 18.624-21.888 22.058667-39.552h40.682667c-4.48 30.72-15.509333 53.376-33.088 68.736-18.282667 15.744-43.093333 23.424-74.816 23.424z"  horiz-adv-x="1024" />

    
    <glyph glyph-name="PSDtubiao" unicode="&#58959;" d="M192 512h640a42.666667 42.666667 0 0 0 42.666667-42.666667v-362.666666a42.666667 42.666667 0 0 0-42.666667-42.666667H192v-106.666667a21.333333 21.333333 0 0 1 21.333333-21.333333h725.333334a21.333333 21.333333 0 0 1 21.333333 21.333333V587.178667L949.909333 597.333333h-126.528A98.048 98.048 0 0 0 725.333333 695.381333V823.338667L716.714667 832H213.333333a21.333333 21.333333 0 0 1-21.333333-21.333333v-298.666667zM128 64H42.666667a42.666667 42.666667 0 0 0-42.666667 42.666667V469.333333a42.666667 42.666667 0 0 0 42.666667 42.666667h85.333333V810.666667a85.333333 85.333333 0 0 0 85.333333 85.333333h530.026667L1024 613.546667V-42.666667a85.333333 85.333333 0 0 0-85.333333-85.333333H213.333333a85.333333 85.333333 0 0 0-85.333333 85.333333v106.666667zM75.221333 423.509333V149.333333h44.928v105.216h67.968c66.816 0 100.224 28.416 100.224 84.864 0 56.064-33.408 84.096-99.456 84.096H75.221333z m44.928-38.4h65.28c19.584 0 34.176-3.456 43.392-10.752 9.216-6.912 14.208-18.432 14.208-34.944 0-16.512-4.608-28.416-13.824-35.712-9.216-6.912-23.808-10.752-43.776-10.752h-65.28v92.16z m303.36 43.776c-29.568 0-53.76-6.528-72.96-19.968-20.736-13.824-30.72-33.024-30.72-57.216s10.368-42.624 31.488-55.296c8.064-4.608 29.184-12.288 62.976-23.04 30.336-9.216 48-15.36 53.376-18.048 16.896-8.448 25.728-19.968 25.728-34.56 0-11.52-6.144-20.352-17.664-27.264-11.52-6.528-27.648-9.984-47.616-9.984-22.656 0-39.168 4.224-49.92 11.904-11.904 8.832-19.2 23.808-22.272 44.544h-44.544c1.92-34.944 14.592-60.288 37.632-76.416 18.816-13.056 45.312-19.584 79.104-19.584 34.944 0 62.208 7.296 81.408 21.12 19.2 14.208 28.8 33.792 28.8 58.368 0 25.344-11.904 44.928-35.712 59.136-10.752 6.144-34.56 15.36-71.808 26.88-25.344 8.064-41.088 13.824-46.848 16.896-13.056 6.912-19.2 16.512-19.2 28.032 0 13.056 5.376 22.656 16.896 28.416 9.216 4.992 22.272 7.296 39.552 7.296 19.968 0 35.328-3.456 45.312-11.136 9.984-7.296 17.28-19.584 21.12-36.48h44.544c-2.688 29.952-13.824 52.224-33.024 66.432-18.048 13.44-43.392 19.968-75.648 19.968z m153.216-5.376V149.333333h100.224c44.544 0 77.952 12.288 100.992 36.864 21.888 23.424 33.024 56.832 33.024 100.224 0 43.776-11.136 77.184-33.024 100.224-23.04 24.576-56.448 36.864-100.992 36.864h-100.224z m44.928-38.4h46.848c34.176 0 59.136-7.68 74.88-23.424 15.36-15.36 23.04-40.704 23.04-75.264 0-33.792-7.68-58.752-23.04-74.88-15.744-15.744-40.704-23.808-74.88-23.808H621.653333v197.376z"  horiz-adv-x="1024" />

    
    <glyph glyph-name="RARtubiao" unicode="&#58960;" d="M192 512h640a42.666667 42.666667 0 0 0 42.666667-42.666667v-362.666666a42.666667 42.666667 0 0 0-42.666667-42.666667H192v-106.666667a21.333333 21.333333 0 0 1 21.333333-21.333333h725.333334a21.333333 21.333333 0 0 1 21.333333 21.333333V587.178667L949.909333 597.333333h-126.528A98.048 98.048 0 0 0 725.333333 695.381333V823.338667L716.714667 832H213.333333a21.333333 21.333333 0 0 1-21.333333-21.333333v-298.666667zM128 64H42.666667a42.666667 42.666667 0 0 0-42.666667 42.666667V469.333333a42.666667 42.666667 0 0 0 42.666667 42.666667h85.333333V810.666667a85.333333 85.333333 0 0 0 85.333333 85.333333h530.026667L1024 613.546667V-42.666667a85.333333 85.333333 0 0 0-85.333333-85.333333H213.333333a85.333333 85.333333 0 0 0-85.333333 85.333333v106.666667zM83.456 423.509333V149.333333h42.88v111.744H194.133333c14.656 0 26.026667-3.072 33.706667-9.984 7.338667-6.528 11.733333-17.28 13.226667-32.256l3.285333-33.792c1.450667-15.36 5.12-27.264 11.349333-35.712h46.549334c-8.789333 9.984-14.293333 23.424-15.765334 40.32l-4.394666 44.16c-2.922667 26.88-15.744 42.624-38.485334 48v0.768a56.96 56.96 0 0 1 33.365334 24.192 67.584 67.584 0 0 1 10.986666 38.016c0 26.112-8.426667 46.08-24.533333 59.904-15.402667 12.672-36.672 18.816-63.424 18.816H83.456z m42.88-38.4H194.133333c17.6 0 30.421333-3.072 38.485334-9.984 8.064-6.528 12.096-17.28 12.096-32.256 0-13.824-4.053333-24.576-12.096-32.256-8.789333-7.296-21.632-11.136-38.485334-11.136H126.336v85.632z m286.976 38.4L313.258667 149.333333h45.802666l23.829334 68.736h109.589333L516.309333 149.333333h45.802667l-100.053333 274.176h-48.746667z m-17.6-168.576l41.429333 120.192h1.450667l41.066667-120.192h-83.946667z m192.064 168.576V149.333333h42.88v111.744h67.797333c14.656 0 26.026667-3.072 33.706667-9.984 7.338667-6.528 11.733333-17.28 13.226667-32.256l3.285333-33.792c1.472-15.36 5.12-27.264 11.370667-35.712h46.528c-8.789333 9.984-14.293333 23.424-15.744 40.32l-4.394667 44.16c-2.944 26.88-15.786667 42.624-38.485333 48v0.768a56.96 56.96 0 0 1 33.344 24.192 67.584 67.584 0 0 1 10.986666 38.016c0 26.112-8.426667 46.08-24.533333 59.904-15.402667 12.672-36.672 18.816-63.424 18.816h-116.544z m42.88-38.4h67.797333c17.6 0 30.421333-3.072 38.485334-9.984 8.064-6.528 12.096-17.28 12.096-32.256 0-13.824-4.032-24.576-12.096-32.256-8.789333-7.296-21.610667-11.136-38.485334-11.136h-67.797333v85.632z"  horiz-adv-x="1024" />

    
    <glyph glyph-name="SVGtubiao" unicode="&#58961;" d="M192 512h640a42.666667 42.666667 0 0 0 42.666667-42.666667v-362.666666a42.666667 42.666667 0 0 0-42.666667-42.666667H192v-106.666667a21.333333 21.333333 0 0 1 21.333333-21.333333h725.333334a21.333333 21.333333 0 0 1 21.333333 21.333333V587.178667L949.909333 597.333333h-126.528A98.048 98.048 0 0 0 725.333333 695.381333V823.338667L716.714667 832H213.333333a21.333333 21.333333 0 0 1-21.333333-21.333333v-298.666667zM128 64H42.666667a42.666667 42.666667 0 0 0-42.666667 42.666667V469.333333a42.666667 42.666667 0 0 0 42.666667 42.666667h85.333333V810.666667a85.333333 85.333333 0 0 0 85.333333 85.333333h530.026667L1024 613.546667V-42.666667a85.333333 85.333333 0 0 0-85.333333-85.333333H213.333333a85.333333 85.333333 0 0 0-85.333333 85.333333v106.666667z m61.376 364.885333c-27.434667 0-49.898667-6.528-67.712-19.968-19.221333-13.824-28.501333-33.024-28.501333-57.216s9.621333-42.624 29.226666-55.296c7.466667-4.608 27.093333-12.288 58.432-23.04 28.138667-9.216 44.522667-15.36 49.514667-18.048 15.68-8.448 23.872-19.968 23.872-34.56 0-11.52-5.696-20.352-16.384-27.264-10.688-6.528-25.664-9.984-44.181333-9.984-21.013333 0-36.352 4.224-46.314667 11.904-11.050667 8.832-17.813333 23.808-20.672 44.544H85.333333c1.792-34.944 13.546667-60.288 34.922667-76.416 17.450667-13.056 42.026667-19.584 73.386667-19.584 32.426667 0 57.706667 7.296 75.52 21.12 17.813333 14.208 26.730667 33.792 26.730666 58.368 0 25.344-11.050667 44.928-33.130666 59.136-9.984 6.144-32.064 15.36-66.624 26.88-23.509333 8.064-38.122667 13.824-43.477334 16.896-12.096 6.912-17.813333 16.512-17.813333 28.032 0 13.056 4.992 22.656 15.68 28.416 8.554667 4.992 20.672 7.296 36.693333 7.296 18.538667 0 32.789333-3.456 42.048-11.136 9.258667-7.296 16.021333-19.584 19.584-36.48h41.344c-2.496 29.952-12.821333 52.224-30.656 66.432-16.725333 13.44-40.256 19.968-70.186666 19.968z m118.976-5.376L398.848 149.333333h50.24l90.496 274.176h-45.226667l-69.845333-223.488h-1.066667l-69.845333 223.488h-45.226667z m368.405333 5.376c-37.76 0-67.690667-13.824-89.792-42.24-21.013333-26.496-31.36-60.288-31.36-101.376 0-40.704 10.346667-74.112 31.36-99.84 22.442667-27.648 53.802667-41.472 94.421334-41.472 22.805333 0 43.093333 3.072 61.632 9.216A143.829333 143.829333 0 0 1 789.333333 179.285333V295.253333h-109.013333v-38.4h67.328v-56.448c-8.533333-5.376-17.450667-9.6-27.434667-12.672a123.285333 123.285333 0 0 0-34.197333-4.608c-30.997333 0-53.802667 9.216-68.416 27.648-13.525333 17.28-20.309333 42.24-20.309333 74.496 0 33.792 7.488 59.52 22.826666 77.952 13.866667 17.664 32.768 26.112 56.64 26.112 19.221333 0 34.901333-4.224 46.656-13.056 11.413333-8.832 19.242667-21.888 22.826667-39.552h42.026667c-4.629333 30.72-16.042667 53.376-34.197334 68.736-18.88 15.744-44.544 23.424-77.312 23.424z"  horiz-adv-x="1024" />

    
    <glyph glyph-name="SWFtubiao" unicode="&#58964;" d="M192 512h640a42.666667 42.666667 0 0 0 42.666667-42.666667v-362.666666a42.666667 42.666667 0 0 0-42.666667-42.666667H192v-106.666667a21.333333 21.333333 0 0 1 21.333333-21.333333h725.333334a21.333333 21.333333 0 0 1 21.333333 21.333333V587.178667L949.909333 597.333333h-126.528A98.048 98.048 0 0 0 725.333333 695.381333V823.338667L716.714667 832H213.333333a21.333333 21.333333 0 0 1-21.333333-21.333333v-298.666667zM128 64H42.666667a42.666667 42.666667 0 0 0-42.666667 42.666667V469.333333a42.666667 42.666667 0 0 0 42.666667 42.666667h85.333333V810.666667a85.333333 85.333333 0 0 0 85.333333 85.333333h530.026667L1024 613.546667V-42.666667a85.333333 85.333333 0 0 0-85.333333-85.333333H213.333333a85.333333 85.333333 0 0 0-85.333333 85.333333v106.666667z m35.392 364.885333c-26.218667 0-47.658667-6.528-64.682667-19.968-18.368-13.824-27.221333-33.024-27.221333-57.216s9.173333-42.624 27.904-55.296c7.146667-4.608 25.877333-12.288 55.829333-23.04 26.88-9.216 42.538667-15.36 47.317334-18.048 14.976-8.448 22.805333-19.968 22.805333-34.56 0-11.52-5.461333-20.352-15.658667-27.264-10.218667-6.528-24.512-9.984-42.218666-9.984-20.074667 0-34.709333 4.224-44.245334 11.904-10.538667 8.832-17.024 23.808-19.733333 44.544H64c1.706667-34.944 12.928-60.288 33.365333-76.416 16.661333-13.056 40.149333-19.584 70.101334-19.584 30.976 0 55.146667 7.296 72.170666 21.12 17.024 14.208 25.514667 33.792 25.514667 58.368 0 25.344-10.538667 44.928-31.637333 59.136-9.536 6.144-30.634667 15.36-63.658667 26.88-22.464 8.064-36.416 13.824-41.536 16.896-11.562667 6.912-17.002667 16.512-17.002667 28.032 0 13.056 4.757333 22.656 14.976 28.416 8.170667 4.992 19.733333 7.296 35.050667 7.296 17.706667 0 31.317333-3.456 40.170667-11.136 8.853333-7.296 15.317333-19.584 18.709333-36.48h39.488c-2.389333 29.952-12.245333 52.224-29.269333 66.432-16 13.44-38.464 19.968-67.050667 19.968z m113.685333-5.376L346.837333 149.333333h42.56l47.658667 206.208h1.344L485.717333 149.333333h42.218667l70.101333 274.176h-44.928l-45.610666-208.512h-1.365334l-48 208.512h-41.173333l-48-208.512h-1.344l-45.610667 208.512h-44.928z m346.496 0V149.333333h39.829334v121.344h118.784v38.4h-118.784v76.032H789.333333v38.4h-165.76z"  horiz-adv-x="1024" />

    
    <glyph glyph-name="RPtubiao" unicode="&#58965;" d="M192 512h640a42.666667 42.666667 0 0 0 42.666667-42.666667v-362.666666a42.666667 42.666667 0 0 0-42.666667-42.666667H192v-106.666667a21.333333 21.333333 0 0 1 21.333333-21.333333h725.333334a21.333333 21.333333 0 0 1 21.333333 21.333333V587.178667L949.909333 597.333333h-126.528A98.048 98.048 0 0 0 725.333333 695.381333V823.338667L716.714667 832H213.333333a21.333333 21.333333 0 0 1-21.333333-21.333333v-298.666667zM128 64H42.666667a42.666667 42.666667 0 0 0-42.666667 42.666667V469.333333a42.666667 42.666667 0 0 0 42.666667 42.666667h85.333333V810.666667a85.333333 85.333333 0 0 0 85.333333 85.333333h530.026667L1024 613.546667V-42.666667a85.333333 85.333333 0 0 0-85.333333-85.333333H213.333333a85.333333 85.333333 0 0 0-85.333333 85.333333v106.666667z m76.629333 359.509333V149.333333h44.928v111.744h71.04c15.36 0 27.264-3.072 35.328-9.984 7.68-6.528 12.288-17.28 13.824-32.256l3.456-33.792c1.536-15.36 5.376-27.264 11.904-35.712h48.768c-9.216 9.984-14.976 23.424-16.512 40.32l-4.608 44.16c-3.072 26.88-16.512 42.624-40.32 48v0.768a59.605333 59.605333 0 0 1 34.944 24.192c7.68 11.136 11.52 23.808 11.52 38.016 0 26.112-8.832 46.08-25.728 59.904-16.128 12.672-38.4 18.816-66.432 18.816H204.629333z m44.928-38.4h71.04c18.432 0 31.872-3.072 40.32-9.984 8.448-6.528 12.672-17.28 12.672-32.256 0-13.824-4.224-24.576-12.672-32.256-9.216-7.296-22.656-11.136-40.32-11.136h-71.04v85.632z m222.72 38.4V149.333333h44.928v105.216h67.968c66.816 0 100.224 28.416 100.224 84.864 0 56.064-33.408 84.096-99.456 84.096h-113.664z m44.928-38.4h65.28c19.584 0 34.176-3.456 43.392-10.752 9.216-6.912 14.208-18.432 14.208-34.944 0-16.512-4.608-28.416-13.824-35.712-9.216-6.912-23.808-10.752-43.776-10.752h-65.28v92.16z"  horiz-adv-x="1024" />

    
    <glyph glyph-name="TIFtubiao" unicode="&#58966;" d="M192 512h640a42.666667 42.666667 0 0 0 42.666667-42.666667v-362.666666a42.666667 42.666667 0 0 0-42.666667-42.666667H192v-106.666667a21.333333 21.333333 0 0 1 21.333333-21.333333h725.333334a21.333333 21.333333 0 0 1 21.333333 21.333333V587.178667L949.909333 597.333333h-126.528A98.048 98.048 0 0 0 725.333333 695.381333V823.338667L716.714667 832H213.333333a21.333333 21.333333 0 0 1-21.333333-21.333333v-298.666667zM128 64H42.666667a42.666667 42.666667 0 0 0-42.666667 42.666667V469.333333a42.666667 42.666667 0 0 0 42.666667 42.666667h85.333333V810.666667a85.333333 85.333333 0 0 0 85.333333 85.333333h530.026667L1024 613.546667V-42.666667a85.333333 85.333333 0 0 0-85.333333-85.333333H213.333333a85.333333 85.333333 0 0 0-85.333333 85.333333v106.666667z m35.925333 359.509333v-38.4h89.856V149.333333h44.928V385.109333h89.856v38.4H163.925333z m257.28 0V149.333333h44.928V423.509333h-44.928z m98.688 0V149.333333h44.928v121.344h134.016v38.4h-134.016v76.032h142.08v38.4H519.893333z"  horiz-adv-x="1024" />

    
    <glyph glyph-name="TXTtubiao" unicode="&#58967;" d="M192 512h640a42.666667 42.666667 0 0 0 42.666667-42.666667v-362.666666a42.666667 42.666667 0 0 0-42.666667-42.666667H192v-106.666667a21.333333 21.333333 0 0 1 21.333333-21.333333h725.333334a21.333333 21.333333 0 0 1 21.333333 21.333333V587.178667L949.909333 597.333333h-126.528A98.048 98.048 0 0 0 725.333333 695.381333V823.338667L716.714667 832H213.333333a21.333333 21.333333 0 0 1-21.333333-21.333333v-298.666667zM128 64H42.666667a42.666667 42.666667 0 0 0-42.666667 42.666667V469.333333a42.666667 42.666667 0 0 0 42.666667 42.666667h85.333333V810.666667a85.333333 85.333333 0 0 0 85.333333 85.333333h530.026667L1024 613.546667V-42.666667a85.333333 85.333333 0 0 0-85.333333-85.333333H213.333333a85.333333 85.333333 0 0 0-85.333333 85.333333v106.666667zM98.624 423.509333v-38.4h85.994667V149.333333h43.008V385.109333h86.016v38.4H98.602667z m228.245333 0l87.850667-132.48L320.981333 149.333333h52.565334l67.626666 105.984L508.8 149.333333h52.565333l-94.464 141.696 88.576 132.48h-52.544l-61.76-96.768-61.738666 96.768h-52.565334z m241.856 0v-38.4h85.994667V149.333333h43.008V385.109333h86.016v38.4h-215.04z"  horiz-adv-x="1024" />

    
    <glyph glyph-name="ZIPtubiao" unicode="&#58968;" d="M192 512h640a42.666667 42.666667 0 0 0 42.666667-42.666667v-362.666666a42.666667 42.666667 0 0 0-42.666667-42.666667H192v-106.666667a21.333333 21.333333 0 0 1 21.333333-21.333333h725.333334a21.333333 21.333333 0 0 1 21.333333 21.333333V587.178667L949.909333 597.333333h-126.528A98.048 98.048 0 0 0 725.333333 695.381333V823.338667L716.714667 832H213.333333a21.333333 21.333333 0 0 1-21.333333-21.333333v-298.666667zM128 64H42.666667a42.666667 42.666667 0 0 0-42.666667 42.666667V469.333333a42.666667 42.666667 0 0 0 42.666667 42.666667h85.333333V810.666667a85.333333 85.333333 0 0 0 85.333333 85.333333h530.026667L1024 613.546667V-42.666667a85.333333 85.333333 0 0 0-85.333333-85.333333H213.333333a85.333333 85.333333 0 0 0-85.333333 85.333333v106.666667z m32.661333 359.509333v-38.4h147.072l-158.592-200.448V149.333333h226.176v38.4H207.893333l158.208 200.064v35.712h-205.44z m251.136 0V149.333333h44.928V423.509333h-44.928z m98.688 0V149.333333h44.928v105.216h67.968c66.816 0 100.224 28.416 100.224 84.864 0 56.064-33.408 84.096-99.456 84.096h-113.664z m44.928-38.4h65.28c19.584 0 34.176-3.456 43.392-10.752 9.216-6.912 14.208-18.432 14.208-34.944 0-16.512-4.608-28.416-13.824-35.712-9.216-6.912-23.808-10.752-43.776-10.752h-65.28v92.16z"  horiz-adv-x="1024" />

    
    <glyph glyph-name="JPGtubiao" unicode="&#58969;" d="M192 512h640a42.666667 42.666667 0 0 0 42.666667-42.666667v-362.666666a42.666667 42.666667 0 0 0-42.666667-42.666667H192v-106.666667a21.333333 21.333333 0 0 1 21.333333-21.333333h725.333334a21.333333 21.333333 0 0 1 21.333333 21.333333V587.178667L949.909333 597.333333h-126.528A98.048 98.048 0 0 0 725.333333 695.381333V823.338667L716.714667 832H213.333333a21.333333 21.333333 0 0 1-21.333333-21.333333v-298.666667zM128 64H42.666667a42.666667 42.666667 0 0 0-42.666667 42.666667V469.333333a42.666667 42.666667 0 0 0 42.666667 42.666667h85.333333V810.666667a85.333333 85.333333 0 0 0 85.333333 85.333333h530.026667L1024 613.546667V-42.666667a85.333333 85.333333 0 0 0-85.333333-85.333333H213.333333a85.333333 85.333333 0 0 0-85.333333 85.333333v106.666667z m83.050667 359.509333v-183.936c0-19.584-3.349333-33.792-10.026667-42.624-6.72-8.832-17.493333-13.44-32-13.44-26.453333 0-39.466667 15.744-39.466667 47.232v8.448h-43.52v-8.832c0-26.88 7.04-48 21.205334-63.36 13.76-15.36 34.218667-23.04 61.013333-23.04 30.890667 0 53.226667 8.064 67.370667 24.192 12.650667 15.36 18.986667 38.4 18.986666 69.888v185.472H211.029333z m95.658666 0V149.333333h43.52v105.216h65.877334c64.768 0 97.130667 28.416 97.130666 84.864 0 56.064-32.362667 84.096-96.384 84.096h-110.144z m43.52-38.4h63.274667c18.986667 0 33.130667-3.456 42.048-10.752 8.938667-6.912 13.781333-18.432 13.781333-34.944 0-16.512-4.48-28.416-13.397333-35.712-8.938667-6.912-23.082667-10.752-42.432-10.752h-63.253333v92.16z m315.584 43.776c-39.445333 0-70.698667-13.824-93.781333-42.24-21.952-26.496-32.746667-60.288-32.746667-101.376 0-40.704 10.794667-74.112 32.746667-99.84 23.466667-27.648 56.192-41.472 98.624-41.472 23.808 0 45.013333 3.072 64.384 9.216 18.24 6.144 34.24 14.592 48.384 26.112V295.253333h-113.877333v-38.4h70.336v-56.448c-8.938667-5.376-18.24-9.6-28.672-12.672a134.144 134.144 0 0 0-35.712-4.608c-32.384 0-56.192 9.216-71.466667 27.648-14.122667 17.28-21.205333 42.24-21.205333 74.496 0 33.792 7.829333 59.52 23.829333 77.952 14.506667 17.664 34.24 26.112 59.157333 26.112 20.096 0 36.48-4.224 48.746667-13.056 11.925333-8.832 20.096-21.888 23.829333-39.552h43.904c-4.821333 30.72-16.746667 53.376-35.712 68.736-19.733333 15.744-46.506667 23.424-80.768 23.424z"  horiz-adv-x="1024" />

    
    <glyph glyph-name="WPStubiao" unicode="&#58970;" d="M192 512h640a42.666667 42.666667 0 0 0 42.666667-42.666667v-362.666666a42.666667 42.666667 0 0 0-42.666667-42.666667H192v-106.666667a21.333333 21.333333 0 0 1 21.333333-21.333333h725.333334a21.333333 21.333333 0 0 1 21.333333 21.333333V587.178667L949.909333 597.333333h-126.528A98.048 98.048 0 0 0 725.333333 695.381333V823.338667L716.714667 832H213.333333a21.333333 21.333333 0 0 1-21.333333-21.333333v-298.666667zM128 64H42.666667a42.666667 42.666667 0 0 0-42.666667 42.666667V469.333333a42.666667 42.666667 0 0 0 42.666667 42.666667h85.333333V810.666667a85.333333 85.333333 0 0 0 85.333333 85.333333h530.026667L1024 613.546667V-42.666667a85.333333 85.333333 0 0 0-85.333333-85.333333H213.333333a85.333333 85.333333 0 0 0-85.333333 85.333333v106.666667zM64 423.509333L128.896 149.333333h39.573333l44.309334 206.208h1.28L258.026667 149.333333h39.253333l65.194667 274.176h-41.770667l-42.432-208.512h-1.258667l-44.629333 208.512H194.090667l-44.629334-208.512h-1.28L105.813333 423.509333H64z m322.24 0V149.333333h40.576v105.216h61.397333c60.352 0 90.517333 28.416 90.517334 84.864 0 56.064-30.165333 84.096-89.813334 84.096h-102.677333z m40.576-38.4h58.965333c17.706667 0 30.869333-3.456 39.189334-10.752 8.32-6.912 12.842667-18.432 12.842666-34.944 0-16.512-4.16-28.416-12.48-35.712-8.32-6.912-21.504-10.752-39.552-10.752h-58.965333v92.16z m274.005333 43.776c-26.709333 0-48.554667-6.528-65.898666-19.968-18.730667-13.824-27.733333-33.024-27.733334-57.216s9.365333-42.624 28.437334-55.296c7.274667-4.608 26.346667-12.288 56.874666-23.04 27.392-9.216 43.349333-15.36 48.213334-18.048 15.253333-8.448 23.253333-19.968 23.253333-34.56 0-11.52-5.546667-20.352-15.978667-27.264-10.389333-6.528-24.96-9.984-43.008-9.984-20.458667 0-35.370667 4.224-45.077333 11.904-10.752 8.832-17.344 23.808-20.117333 44.544h-40.234667c1.728-34.944 13.184-60.288 33.984-76.416 17.002667-13.056 40.938667-19.584 71.466667-19.584 31.552 0 56.170667 7.296 73.514666 21.12 17.344 14.208 26.026667 33.792 26.026667 58.368 0 25.344-10.773333 44.928-32.277333 59.136-9.706667 6.144-31.210667 15.36-64.853334 26.88-22.890667 8.064-37.12 13.824-42.304 16.896-11.797333 6.912-17.344 16.512-17.344 28.032 0 13.056 4.842667 22.656 15.253334 28.416 8.32 4.992 20.117333 7.296 35.733333 7.296 18.026667 0 31.893333-3.456 40.917333-11.136 9.024-7.296 15.616-19.584 19.072-36.48h40.234667c-2.432 29.952-12.48 52.224-29.824 66.432-16.298667 13.44-39.189333 19.968-68.330667 19.968z"  horiz-adv-x="1024" />

    
    <glyph glyph-name="TARtubiao" unicode="&#58971;" d="M192 512h640a42.666667 42.666667 0 0 0 42.666667-42.666667v-362.666666a42.666667 42.666667 0 0 0-42.666667-42.666667H192v-106.666667a21.333333 21.333333 0 0 1 21.333333-21.333333h725.333334a21.333333 21.333333 0 0 1 21.333333 21.333333V587.178667L949.909333 597.333333h-126.528A98.048 98.048 0 0 0 725.333333 695.381333V823.338667L716.714667 832H213.333333a21.333333 21.333333 0 0 1-21.333333-21.333333v-298.666667zM128 64H42.666667a42.666667 42.666667 0 0 0-42.666667 42.666667V469.333333a42.666667 42.666667 0 0 0 42.666667 42.666667h85.333333V810.666667a85.333333 85.333333 0 0 0 85.333333 85.333333h530.026667L1024 613.546667V-42.666667a85.333333 85.333333 0 0 0-85.333333-85.333333H213.333333a85.333333 85.333333 0 0 0-85.333333 85.333333v106.666667zM80.853333 423.509333v-38.4h85.056V149.333333H208.426667V385.109333h85.034666v38.4H80.853333z m317.269334 0L298.922667 149.333333h45.397333l23.637333 68.736h108.650667L500.224 149.333333h45.44l-99.2 274.176h-48.341333z m-17.450667-168.576l41.066667 120.192h1.450666l40.704-120.192h-83.221333z m190.421333 168.576V149.333333h42.517334v111.744h67.221333c14.549333 0 25.813333-3.072 33.450667-9.984 7.253333-6.528 11.626667-17.28 13.077333-32.256l3.264-33.792c1.450667-15.36 5.098667-27.264 11.264-35.712h46.144c-8.704 9.984-14.165333 23.424-15.616 40.32l-4.352 44.16c-2.922667 26.88-15.637333 42.624-38.165333 48v0.768a56.512 56.512 0 0 1 33.066666 24.192c7.253333 11.136 10.901333 23.808 10.901334 38.016 0 26.112-8.362667 46.08-24.341334 59.904-15.274667 12.672-36.352 18.816-62.869333 18.816H571.093333z m42.517334-38.4h67.221333c17.450667 0 30.165333-3.072 38.165333-9.984 8-6.528 11.989333-17.28 11.989334-32.256 0-13.824-3.989333-24.576-11.989334-32.256-8.725333-7.296-21.44-11.136-38.165333-11.136h-67.221333v85.632z"  horiz-adv-x="1024" />

    
    <glyph glyph-name="XSLtubiao" unicode="&#58972;" d="M192 512h640a42.666667 42.666667 0 0 0 42.666667-42.666667v-362.666666a42.666667 42.666667 0 0 0-42.666667-42.666667H192v-106.666667a21.333333 21.333333 0 0 1 21.333333-21.333333h725.333334a21.333333 21.333333 0 0 1 21.333333 21.333333V587.178667L949.909333 597.333333h-126.528A98.048 98.048 0 0 0 725.333333 695.381333V823.338667L716.714667 832H213.333333a21.333333 21.333333 0 0 1-21.333333-21.333333v-298.666667zM128 64H42.666667a42.666667 42.666667 0 0 0-42.666667 42.666667V469.333333a42.666667 42.666667 0 0 0 42.666667 42.666667h85.333333V810.666667a85.333333 85.333333 0 0 0 85.333333 85.333333h530.026667L1024 613.546667V-42.666667a85.333333 85.333333 0 0 0-85.333333-85.333333H213.333333a85.333333 85.333333 0 0 0-85.333333 85.333333v106.666667zM79.253333 423.509333l91.776-132.48L73.109333 149.333333h54.912l70.656 105.984L269.333333 149.333333h54.912l-98.688 141.696 92.544 132.48h-54.912l-64.512-96.768-64.512 96.768H79.253333z m370.56 5.376c-29.568 0-53.76-6.528-72.96-19.968-20.736-13.824-30.72-33.024-30.72-57.216s10.368-42.624 31.488-55.296c8.064-4.608 29.184-12.288 62.976-23.04 30.336-9.216 48-15.36 53.376-18.048 16.896-8.448 25.728-19.968 25.728-34.56 0-11.52-6.144-20.352-17.664-27.264-11.52-6.528-27.648-9.984-47.616-9.984-22.656 0-39.168 4.224-49.92 11.904-11.904 8.832-19.2 23.808-22.272 44.544h-44.544c1.92-34.944 14.592-60.288 37.632-76.416 18.816-13.056 45.312-19.584 79.104-19.584 34.944 0 62.208 7.296 81.408 21.12 19.2 14.208 28.8 33.792 28.8 58.368 0 25.344-11.904 44.928-35.712 59.136-10.752 6.144-34.56 15.36-71.808 26.88-25.344 8.064-41.088 13.824-46.848 16.896-13.056 6.912-19.2 16.512-19.2 28.032 0 13.056 5.376 22.656 16.896 28.416 9.216 4.992 22.272 7.296 39.552 7.296 19.968 0 35.328-3.456 45.312-11.136 9.984-7.296 17.28-19.584 21.12-36.48h44.544c-2.688 29.952-13.824 52.224-33.024 66.432-18.048 13.44-43.392 19.968-75.648 19.968z m153.216-5.376V149.333333h192.768v38.4h-148.224V423.509333h-44.544z"  horiz-adv-x="1024" />

    
    <glyph glyph-name="KEYNOTEtubiao" unicode="&#58986;" d="M192 512h640a42.666667 42.666667 0 0 0 42.666667-42.666667v-362.666666a42.666667 42.666667 0 0 0-42.666667-42.666667H192v-106.666667a21.333333 21.333333 0 0 1 21.333333-21.333333h725.333334a21.333333 21.333333 0 0 1 21.333333 21.333333V587.178667L949.909333 597.333333h-126.528A98.048 98.048 0 0 0 725.333333 695.381333V823.338667L716.714667 832H213.333333a21.333333 21.333333 0 0 1-21.333333-21.333333v-298.666667zM128 64H42.666667a42.666667 42.666667 0 0 0-42.666667 42.666667V469.333333a42.666667 42.666667 0 0 0 42.666667 42.666667h85.333333V810.666667a85.333333 85.333333 0 0 0 85.333333 85.333333h530.026667L1024 613.546667V-42.666667a85.333333 85.333333 0 0 0-85.333333-85.333333H213.333333a85.333333 85.333333 0 0 0-85.333333 85.333333v106.666667z m115.605333 359.509333l-127.488-129.408v129.408H71.189333V149.333333h44.928v94.464l33.408 32.64L257.813333 149.333333h60.672l-138.624 156.672 120.576 117.504h-56.832z m101.76 0V149.333333h204.288v38.4h-159.36v82.944h143.616v38.4h-143.616v76.032h152.832v38.4h-197.76z m221.568 0l108.288-165.12V149.333333h44.928v109.056l108.288 165.12h-54.144l-76.416-123.264-76.8 123.264h-54.144z"  horiz-adv-x="1024" />

    
    <glyph glyph-name="PSBtubiao" unicode="&#58987;" d="M192 512h640a42.666667 42.666667 0 0 0 42.666667-42.666667v-362.666666a42.666667 42.666667 0 0 0-42.666667-42.666667H192v-106.666667a21.333333 21.333333 0 0 1 21.333333-21.333333h725.333334a21.333333 21.333333 0 0 1 21.333333 21.333333V587.178667L949.909333 597.333333h-126.528A98.048 98.048 0 0 0 725.333333 695.381333V823.338667L716.714667 832H213.333333a21.333333 21.333333 0 0 1-21.333333-21.333333v-298.666667zM128 64H42.666667a42.666667 42.666667 0 0 0-42.666667 42.666667V469.333333a42.666667 42.666667 0 0 0 42.666667 42.666667h85.333333V810.666667a85.333333 85.333333 0 0 0 85.333333 85.333333h530.026667L1024 613.546667V-42.666667a85.333333 85.333333 0 0 0-85.333333-85.333333H213.333333a85.333333 85.333333 0 0 0-85.333333 85.333333v106.666667zM80.981333 423.509333V149.333333h44.928v105.216h67.968c66.816 0 100.224 28.416 100.224 84.864 0 56.064-33.408 84.096-99.456 84.096H80.981333z m44.928-38.4h65.28c19.584 0 34.176-3.456 43.392-10.752 9.216-6.912 14.208-18.432 14.208-34.944 0-16.512-4.608-28.416-13.824-35.712-9.216-6.912-23.808-10.752-43.776-10.752h-65.28v92.16z m303.36 43.776c-29.568 0-53.76-6.528-72.96-19.968-20.736-13.824-30.72-33.024-30.72-57.216s10.368-42.624 31.488-55.296c8.064-4.608 29.184-12.288 62.976-23.04 30.336-9.216 48-15.36 53.376-18.048 16.896-8.448 25.728-19.968 25.728-34.56 0-11.52-6.144-20.352-17.664-27.264-11.52-6.528-27.648-9.984-47.616-9.984-22.656 0-39.168 4.224-49.92 11.904-11.904 8.832-19.2 23.808-22.272 44.544h-44.544c1.92-34.944 14.592-60.288 37.632-76.416 18.816-13.056 45.312-19.584 79.104-19.584 34.944 0 62.208 7.296 81.408 21.12 19.2 14.208 28.8 33.792 28.8 58.368 0 25.344-11.904 44.928-35.712 59.136-10.752 6.144-34.56 15.36-71.808 26.88-25.344 8.064-41.088 13.824-46.848 16.896-13.056 6.912-19.2 16.512-19.2 28.032 0 13.056 5.376 22.656 16.896 28.416 9.216 4.992 22.272 7.296 39.552 7.296 19.968 0 35.328-3.456 45.312-11.136 9.984-7.296 17.28-19.584 21.12-36.48h44.544c-2.688 29.952-13.824 52.224-33.024 66.432-18.048 13.44-43.392 19.968-75.648 19.968z m153.216-5.376V149.333333h125.952c29.184 0 52.224 5.376 68.352 16.128 18.816 13.056 28.416 33.408 28.416 61.056 0 18.432-4.608 33.408-13.44 44.16-9.216 11.136-22.656 18.432-40.704 21.888 13.824 5.376 24.192 12.672 31.488 22.656 7.296 10.752 11.136 23.808 11.136 39.168 0 20.736-7.296 37.248-21.504 49.536-15.36 13.056-36.864 19.584-64.128 19.584h-125.568z m44.928-36.864h69.504c18.432 0 31.488-3.072 39.936-9.216 7.68-5.76 11.904-15.36 11.904-28.416 0-14.208-4.224-24.576-11.904-31.104-8.064-6.144-21.504-9.6-40.704-9.6H627.413333v78.336z m0-115.2h75.648c19.968 0 34.56-3.456 43.776-10.368 8.832-6.912 13.44-18.048 13.44-33.792 0-15.36-6.144-26.112-18.432-33.024-9.6-5.376-23.04-8.064-39.936-8.064H627.413333v85.248z"  horiz-adv-x="1024" />

    
    <glyph glyph-name="Interface28-24px" unicode="&#59220;" d="M511.957333 99.584a284.458667 284.458667 0 1 0 284.458667 284.458667 284.757333 284.757333 0 0 0-284.458667-284.458667z m0 512a227.541333 227.541333 0 1 1 227.584-227.541333 227.797333 227.797333 0 0 1-227.584 227.541333z m0-376.917333a35.584 35.584 0 0 0-35.541333 35.541333v113.834667a35.541333 35.541333 0 0 0 71.125333 0v-113.792a35.584 35.584 0 0 0-35.584-35.541334z m0 220.458666a35.541333 35.541333 0 1 0 35.584 35.541334 35.584 35.584 0 0 0-35.584-35.541334z"  horiz-adv-x="1024" />

    
    <glyph glyph-name="Interface36-24px" unicode="&#59223;" d="M768 99.584h-113.28a28.416 28.416 0 0 0 0 56.874667h44.586667l-123.733334 123.733333a28.458667 28.458667 0 1 0 40.234667 40.277333l123.733333-123.733333v44.544a28.416 28.416 0 1 0 56.874667 0V128a28.458667 28.458667 0 0 0-28.416-28.416z m-398.72 0H256a28.501333 28.501333 0 0 0-28.458667 28.501333v113.237334a28.458667 28.458667 0 0 0 56.917334 0v-43.904l121.173333 122.88a28.458667 28.458667 0 0 0 40.234667 0.298666 28.544 28.544 0 0 0 0.256-40.234666L324.010667 156.586667h45.269333a28.416 28.416 0 1 0 0-56.874667z m56.618667 342.186667a28.288 28.288 0 0 0-20.138667 8.533333L284.458667 571.434667v-44.586667a28.458667 28.458667 0 0 0-56.917334 0V640.085333A28.501333 28.501333 0 0 0 256 668.586667h113.237333a28.458667 28.458667 0 1 0 0-56.917334H324.650667l121.344-121.344a28.458667 28.458667 0 0 0-20.096-48.554666z m169.856 0a28.458667 28.458667 0 0 0-19.968 48.682666l122.88 121.173334h-43.904a28.458667 28.458667 0 0 0 0 56.917333H768a28.458667 28.458667 0 0 0 28.416-28.458667v-113.194666a28.416 28.416 0 1 0-56.874667 0v45.226666l-123.733333-122.154666a28.245333 28.245333 0 0 0-20.096-8.192z"  horiz-adv-x="1024" />

    
    <glyph glyph-name="Interface53-24px" unicode="&#59231;" d="M256 99.584a28.458667 28.458667 0 0 0-19.925333 48.554667l170.666666 170.666666a28.032 28.032 0 0 0 7.978667 5.589334 211.2 211.2 0 0 0-44.928 130.730666 213.333333 213.333333 0 1 0 213.333333-213.333333 211.2 211.2 0 0 0-130.773333 44.757333 28.032 28.032 0 0 0-5.589333-7.936l-170.666667-170.666666a28.330667 28.330667 0 0 0-20.096-8.362667z m327.125333 512a156.458667 156.458667 0 1 1 156.416-156.458667 156.629333 156.629333 0 0 1-156.458666 156.458667z m0-256a28.458667 28.458667 0 0 0-28.416 28.458667v42.666666h-42.666666a28.416 28.416 0 0 0 0 56.874667h42.666666v42.666667a28.416 28.416 0 1 0 56.832-0.042667v-42.666667h42.666667a28.416 28.416 0 1 0 0-56.874666h-42.666667v-42.666667a28.501333 28.501333 0 0 0-28.458666-28.416z"  horiz-adv-x="1024" />

    
    <glyph glyph-name="Interface54-24px" unicode="&#59232;" d="M256 99.584a28.458667 28.458667 0 0 0-19.925333 48.554667l170.666666 170.666666a28.032 28.032 0 0 0 7.978667 5.589334 211.2 211.2 0 0 0-44.928 130.730666 213.333333 213.333333 0 1 0 213.333333-213.333333 211.2 211.2 0 0 0-130.773333 44.757333 28.032 28.032 0 0 0-5.589333-7.936l-170.666667-170.666666a28.330667 28.330667 0 0 0-20.096-8.362667z m327.125333 512a156.458667 156.458667 0 1 1 156.416-156.458667 156.629333 156.629333 0 0 1-156.458666 156.458667z m71.082667-184.874667h-142.250667a28.416 28.416 0 0 0 0 56.874667h142.250667a28.416 28.416 0 1 0 0-56.874667z"  horiz-adv-x="1024" />

    
    <glyph glyph-name="Interface68-24px" unicode="&#59237;" d="M625.792 99.584H398.250667a85.333333 85.333333 0 0 0-85.333334 85.333333v256a57.514667 57.514667 0 0 0 0.469334 7.338667 57.130667 57.130667 0 0 0-28.928 49.536v28.416A56.96 56.96 0 0 0 341.333333 583.125333h56.917334a85.333333 85.333333 0 0 0 85.333333 85.333334h56.874667a85.333333 85.333333 0 0 0 85.333333-85.333334H682.666667a56.917333 56.917333 0 0 0 56.917333-56.917333v-28.416a57.130667 57.130667 0 0 0-28.928-49.578667 58.666667 58.666667 0 0 0 0.469333-7.296v-256a85.333333 85.333333 0 0 0-85.333333-85.333333z m-256 341.333333v-256a28.458667 28.458667 0 0 1 28.458667-28.458666h227.541333a28.458667 28.458667 0 0 1 28.458667 28.416v256H597.333333v-170.666667a28.458667 28.458667 0 1 0-56.874666 0.042667v170.666666h-56.874667v-170.666666a28.416 28.416 0 1 0-56.874667 0v170.666666z m-28.458667 85.333334v-28.458667h341.333334v28.416H341.333333z m142.250667 85.333333a28.501333 28.501333 0 0 1-28.458667-28.458667h113.749334a28.501333 28.501333 0 0 1-28.416 28.458667z"  horiz-adv-x="1024" />

    
    <glyph glyph-name="shoucang1" unicode="&#59084;" d="M512 132.096l-167.936-88.064c-20.48-10.24-45.056-2.048-55.296 16.384-4.096 8.192-6.144 16.384-4.096 26.624l32.768 186.368L182.272 404.48c-16.384 16.384-16.384 40.96 0 57.344 6.144 6.144 14.336 10.24 22.528 12.288l186.368 26.624 83.968 169.984c10.24 20.48 34.816 28.672 55.296 18.432 8.192-4.096 14.336-10.24 18.432-18.432l83.968-169.984 186.368-26.624c22.528-4.096 38.912-24.576 34.816-47.104-2.048-8.192-6.144-16.384-12.288-22.528l-135.168-131.072 32.768-186.368c4.096-22.528-10.24-43.008-32.768-47.104-8.192-2.048-18.432 0-26.624 4.096L512 132.096z"  horiz-adv-x="1024" />

    
    <glyph glyph-name="xianshi" unicode="&#59086;" d="M143.36 377.856s100.352 245.76 368.64 245.76c200.704 0 368.64-245.76 368.64-245.76s-167.936-245.76-368.64-245.76c-268.288 0-368.64 245.76-368.64 245.76zM512 254.976c-67.584 0-122.88 55.296-122.88 122.88s55.296 122.88 122.88 122.88 122.88-55.296 122.88-122.88-55.296-122.88-122.88-122.88z"  horiz-adv-x="1024" />

    
    <glyph glyph-name="dianzan" unicode="&#59087;" d="M389.12 465.92v-368.64l47.104-16.384c49.152-16.384 102.4-24.576 155.648-24.576h147.456c59.392 0 108.544 40.96 120.832 98.304l30.72 153.6c12.288 65.536-30.72 131.072-96.256 145.408-10.24 2.048-20.48 2.048-32.768 2.048L614.4 445.44l14.336 163.84c2.048 30.72-20.48 57.344-51.2 61.44H573.44c-38.912 0-73.728-20.48-92.16-53.248L389.12 465.92zM143.36 506.88h122.88c22.528 0 40.96-18.432 40.96-40.96v-368.64c0-22.528-18.432-40.96-40.96-40.96H143.36c-22.528 0-40.96 18.432-40.96 40.96V465.92c0 22.528 18.432 40.96 40.96 40.96z"  horiz-adv-x="1024" />

    
    <glyph glyph-name="tongyongtubiao" unicode="&#59077;" d="M192 512h640a42.666667 42.666667 0 0 0 42.666667-42.666667v-362.666666a42.666667 42.666667 0 0 0-42.666667-42.666667H192v-106.666667a21.333333 21.333333 0 0 1 21.333333-21.333333h725.333334a21.333333 21.333333 0 0 1 21.333333 21.333333V587.178667L949.909333 597.333333h-126.528A98.048 98.048 0 0 0 725.333333 695.381333V823.338667L716.714667 832H213.333333a21.333333 21.333333 0 0 1-21.333333-21.333333v-298.666667zM128 64H42.666667a42.666667 42.666667 0 0 0-42.666667 42.666667v192h64v64H0v106.666666a42.666667 42.666667 0 0 0 42.666667 42.666667h85.333333V810.666667a85.333333 85.333333 0 0 0 85.333333 85.333333h530.026667L1024 613.546667V-42.666667a85.333333 85.333333 0 0 0-85.333333-85.333333H213.333333a85.333333 85.333333 0 0 0-85.333333 85.333333v106.666667z m0 170.666667v64H64v-64h64z m64 64v-64h64v64H192z m64 64v-64h64v64h-64z m64-64v-64h64v64h-64z m106.666667 64v-128h234.666666v128H426.666667zM128 362.666667v-64h64v64H128z m448-21.333334h64v-85.333333h-64v85.333333z"  horiz-adv-x="1024" />

    
    <glyph glyph-name="RMtubiao" unicode="&#59079;" d="M743.36 896L1024 613.546667V-42.666667a85.333333 85.333333 0 0 0-85.333333-85.333333H213.333333a85.333333 85.333333 0 0 0-85.333333 85.333333v106.666667H42.666667a42.666667 42.666667 0 0 0-42.666667 42.666667V469.333333a42.666667 42.666667 0 0 0 42.666667 42.666667h85.333333V810.666667a85.333333 85.333333 0 0 0 85.333333 85.333333h530.026667z m-26.645333-64H213.333333a21.333333 21.333333 0 0 1-21.333333-21.333333v-298.666667h640a42.666667 42.666667 0 0 0 42.666667-42.666667v-362.666666a42.666667 42.666667 0 0 0-42.666667-42.666667H192v-106.666667a21.333333 21.333333 0 0 1 21.333333-21.333333h725.333334a21.333333 21.333333 0 0 1 21.333333 21.333333V587.178667L949.909333 597.333333h-126.528A98.048 98.048 0 0 0 725.333333 695.381333V823.317333L716.714667 832zM157.013333 423.509333h122.112c28.032 0 50.304-6.144 66.432-18.816 16.896-13.824 25.728-33.792 25.728-59.904 0-14.208-3.84-26.88-11.52-38.016a59.605333 59.605333 0 0 0-34.944-24.192v-0.768c23.808-5.376 37.248-21.12 40.32-48l4.608-44.16c1.536-16.896 7.296-30.336 16.512-40.32H337.493333c-6.528 8.448-10.368 20.352-11.904 35.712l-3.456 33.792c-1.536 14.976-6.144 25.728-13.824 32.256-8.064 6.912-19.968 9.984-35.328 9.984h-71.04V149.333333H157.013333V423.509333z m44.928-38.4v-85.632h71.04c17.664 0 31.104 3.84 40.32 11.136 8.448 7.68 12.672 18.432 12.672 32.256 0 14.976-4.224 25.728-12.672 32.256-8.448 6.912-21.888 9.984-40.32 9.984h-71.04z m222.72 38.4h52.608l93.312-215.04h1.536l92.928 215.04h52.608V149.333333h-44.928v188.928h-1.536L590.549333 149.333333h-38.784l-80.64 188.928h-1.536V149.333333h-44.928V423.509333z"  horiz-adv-x="1024" />

    
    <glyph glyph-name="XLSXtubiao" unicode="&#59080;" d="M743.36 896L1024 613.546667V-42.666667a85.333333 85.333333 0 0 0-85.333333-85.333333H213.333333a85.333333 85.333333 0 0 0-85.333333 85.333333v106.666667H42.666667a42.666667 42.666667 0 0 0-42.666667 42.666667V469.333333a42.666667 42.666667 0 0 0 42.666667 42.666667h85.333333V810.666667a85.333333 85.333333 0 0 0 85.333333 85.333333h530.026667z m-26.645333-64H213.333333a21.333333 21.333333 0 0 1-21.333333-21.333333v-298.666667h640a42.666667 42.666667 0 0 0 42.666667-42.666667v-362.666666a42.666667 42.666667 0 0 0-42.666667-42.666667H192v-106.666667a21.333333 21.333333 0 0 1 21.333333-21.333333h725.333334a21.333333 21.333333 0 0 1 21.333333 21.333333V587.178667L949.909333 597.333333h-126.528A98.048 98.048 0 0 0 725.333333 695.381333V823.317333L716.714667 832zM40.917333 423.509333h51.306667l60.288-96.768 60.288 96.768h51.306667l-86.485334-132.48L269.866667 149.333333h-51.306667l-66.026667 105.984L86.485333 149.333333H35.2l91.498667 141.696-85.76 132.48z m228.928 0h44.288V187.733333h83.712V149.333333h-128V423.509333z m222.869334 5.376c27.285333 0 48.725333-6.528 64-19.968 16.234667-14.208 25.664-36.48 27.946666-66.432h-37.696c-3.242667 16.896-9.429333 29.184-17.877333 36.48-8.448 7.68-21.44 11.136-38.336 11.136-14.613333 0-25.664-2.304-33.450667-7.296-9.749333-5.76-14.293333-15.36-14.293333-28.416 0-11.52 5.184-21.12 16.234667-28.032 4.885333-3.072 18.197333-8.832 39.637333-16.896 31.509333-11.52 51.648-20.736 60.757333-26.88 20.138667-14.208 30.208-33.792 30.208-59.136 0-24.576-8.106667-44.16-24.362666-58.368-16.256-13.824-39.317333-21.12-68.885334-21.12-28.586667 0-50.986667 6.528-66.922666 19.584-19.477333 16.128-30.208 41.472-31.829334 76.416h37.674667c2.602667-20.736 8.789333-35.712 18.858667-44.544 9.088-7.68 23.061333-11.904 42.24-11.904 16.874667 0 30.506667 3.456 40.277333 9.984 9.749333 6.912 14.933333 15.744 14.933333 27.264 0 14.592-7.466667 26.112-21.76 34.56-4.544 2.688-19.498667 8.832-45.162666 18.048-28.586667 10.752-46.442667 18.432-53.269334 23.04-17.877333 12.672-26.645333 31.104-26.645333 55.296 0 24.192 8.448 43.392 25.984 57.216 16.256 13.44 36.714667 19.968 61.738667 19.968z m102.869333-5.376h51.306667l60.288-96.768 60.288 96.768h51.306666l-86.485333-132.48L824.533333 149.333333h-51.306666l-66.026667 105.984L641.152 149.333333H589.866667l91.498666 141.696-85.76 132.48z"  horiz-adv-x="1024" />

    
    <glyph glyph-name="DOCXtubiao" unicode="&#59081;" d="M743.36 896L1024 613.546667V-42.666667a85.333333 85.333333 0 0 0-85.333333-85.333333H213.333333a85.333333 85.333333 0 0 0-85.333333 85.333333v106.666667H42.666667a42.666667 42.666667 0 0 0-42.666667 42.666667V469.333333a42.666667 42.666667 0 0 0 42.666667 42.666667h85.333333V810.666667a85.333333 85.333333 0 0 0 85.333333 85.333333h530.026667z m-26.645333-64H213.333333a21.333333 21.333333 0 0 1-21.333333-21.333333v-298.666667h640a42.666667 42.666667 0 0 0 42.666667-42.666667v-362.666666a42.666667 42.666667 0 0 0-42.666667-42.666667H192v-106.666667a21.333333 21.333333 0 0 1 21.333333-21.333333h725.333334a21.333333 21.333333 0 0 1 21.333333 21.333333V587.178667L949.909333 597.333333h-126.528A98.048 98.048 0 0 0 725.333333 695.381333V823.317333L716.714667 832zM58.474667 423.509333h70.570666c31.36 0 54.869333-12.288 71.104-36.864 15.402667-23.04 23.253333-56.448 23.253334-100.224 0-43.392-7.850667-76.8-23.253334-100.224C183.936 161.621333 160.405333 149.333333 129.045333 149.333333H58.453333V423.509333z m31.637333-38.4V187.733333H123.093333c24.064 0 41.642667 8.064 52.714667 23.808 10.816 16.128 16.213333 41.088 16.213333 74.88 0 34.56-5.397333 59.904-16.213333 75.264-11.093333 15.744-28.650667 23.424-52.714667 23.424H90.112z m248.746667 43.776c29.44 0 52.693333-13.44 69.738666-40.704 16.213333-25.728 24.32-59.904 24.32-102.144 0-42.24-8.106667-76.032-24.32-101.76-17.024-26.88-40.277333-40.32-69.76-40.32-29.738667 0-52.992 13.824-69.76 40.704-16.213333 26.112-24.042667 59.904-24.042666 101.376 0 41.856 7.829333 75.648 24.042666 101.76 16.768 27.648 40.021333 41.088 69.76 41.088z m0-39.552c-20.032 0-35.434667-9.6-46.506667-28.8-10.56-18.432-15.701333-43.008-15.701333-74.496 0-31.104 5.141333-55.68 15.68-74.112 10.816-18.816 26.496-28.416 46.506666-28.416 20.010667 0 35.413333 9.216 46.229334 27.264 10.56 18.048 15.957333 43.008 15.957333 75.264s-5.397333 57.6-15.957333 76.032c-10.816 18.432-26.218667 27.264-46.229334 27.264z m207.616 39.552c22.72 0 41.642667-8.448 56.234666-25.344 14.08-16.128 22.442667-38.4 25.429334-66.048h-30.826667c-3.242667 18.048-9.194667 31.104-18.133333 39.552-8.64 8.448-19.712 12.288-33.237334 12.288-20.266667 0-35.413333-9.6-45.696-29.568-9.450667-17.664-14.058667-42.24-14.058666-73.728 0-32.256 4.608-57.216 13.781333-74.496 10.026667-18.432 25.685333-28.032 46.784-28.032 13.781333 0 25.152 4.992 33.792 14.208 9.194667 10.368 15.68 26.112 19.477333 46.848h30.805334c-4.309333-32.256-14.314667-57.216-30.272-75.264-14.869333-16.896-32.725333-25.344-53.546667-25.344-32.149333 0-56.213333 14.592-71.893333 43.008-13.802667 24.576-20.565333 57.6-20.565334 99.072 0 40.704 7.04 74.112 21.376 99.456 16.213333 29.184 39.744 43.392 70.549334 43.392z m100.842666-5.376h38.677334l45.418666-96.768 45.418667 96.768h38.656l-65.152-132.48L819.818667 149.333333h-38.656l-49.749334 105.984L681.664 149.333333H642.986667l68.928 141.696-64.618667 132.48z"  horiz-adv-x="1024" />

    
    <glyph glyph-name="JPEGtubiao" unicode="&#59082;" d="M743.36 896L1024 613.546667V-42.666667a85.333333 85.333333 0 0 0-85.333333-85.333333H213.333333a85.333333 85.333333 0 0 0-85.333333 85.333333v106.666667H42.666667a42.666667 42.666667 0 0 0-42.666667 42.666667V469.333333a42.666667 42.666667 0 0 0 42.666667 42.666667h85.333333V810.666667a85.333333 85.333333 0 0 0 85.333333 85.333333h530.026667z m-26.645333-64H213.333333a21.333333 21.333333 0 0 1-21.333333-21.333333v-298.666667h640a42.666667 42.666667 0 0 0 42.666667-42.666667v-362.666666a42.666667 42.666667 0 0 0-42.666667-42.666667H192v-106.666667a21.333333 21.333333 0 0 1 21.333333-21.333333h725.333334a21.333333 21.333333 0 0 1 21.333333 21.333333V587.178667L949.909333 597.333333h-126.528A98.048 98.048 0 0 0 725.333333 695.381333V823.317333L716.714667 832zM155.669333 423.509333h36.010667v-185.472c0-31.488-5.248-54.528-15.701333-69.888-11.690667-16.128-30.144-24.192-55.68-24.192-22.165333 0-39.082667 7.68-50.474667 23.04-11.690667 15.36-17.536 36.48-17.536 63.36v8.832h35.989333v-8.448c0-31.488 10.773333-47.232 32.64-47.232 11.989333 0 20.906667 4.608 26.453334 13.44 5.546667 8.832 8.32 23.04 8.32 42.624v183.936z m79.082667 0h91.072c52.906667 0 79.68-28.032 79.68-84.096 0-56.448-26.752-84.864-80.298667-84.864h-54.464V149.333333h-35.989333V423.509333z m35.989333-38.4v-92.16h52.309334c16 0 27.690667 3.84 35.072 10.752 7.402667 7.296 11.093333 19.2 11.093333 35.712 0 16.512-4.010667 28.032-11.392 34.944-7.381333 7.296-19.072 10.752-34.773333 10.752h-52.309334z m165.546667 38.4h158.464v-38.4h-122.453333v-76.032h115.050666v-38.4h-115.072V187.733333h127.701334V149.333333H436.266667V423.509333z m292.906667 5.376c28.309333 0 50.474667-7.68 66.773333-23.424 15.701333-15.36 25.536-38.016 29.546667-68.736h-36.309334c-3.072 17.664-9.856 30.72-19.690666 39.552-10.154667 8.832-23.68 13.056-40.32 13.056-20.608 0-36.906667-8.448-48.917334-26.112-13.226667-18.432-19.690667-44.16-19.690666-77.952 0-32.256 5.845333-57.216 17.536-74.496 12.629333-18.432 32.32-27.648 59.093333-27.648 10.453333 0 20.288 1.536 29.525333 4.608a92.608 92.608 0 0 1 23.68 12.672V256.853333h-58.133333v38.4h94.144v-115.968a120.938667 120.938667 0 0 0-40-26.112c-16-6.144-33.536-9.216-53.226667-9.216-35.072 0-62.165333 13.824-81.536 41.472-18.154667 25.728-27.093333 59.136-27.093333 99.84 0 41.088 8.938667 74.88 27.093333 101.376 19.072 28.416 44.928 42.24 77.525334 42.24z"  horiz-adv-x="1024" />

    
    <glyph glyph-name="XLStubiao" unicode="&#59083;" d="M743.36 896L1024 613.546667V-42.666667a85.333333 85.333333 0 0 0-85.333333-85.333333H213.333333a85.333333 85.333333 0 0 0-85.333333 85.333333v106.666667H42.666667a42.666667 42.666667 0 0 0-42.666667 42.666667V469.333333a42.666667 42.666667 0 0 0 42.666667 42.666667h85.333333V810.666667a85.333333 85.333333 0 0 0 85.333333 85.333333h530.026667z m-26.645333-64H213.333333a21.333333 21.333333 0 0 1-21.333333-21.333333v-298.666667h640a42.666667 42.666667 0 0 0 42.666667-42.666667v-362.666666a42.666667 42.666667 0 0 0-42.666667-42.666667H192v-106.666667a21.333333 21.333333 0 0 1 21.333333-21.333333h725.333334a21.333333 21.333333 0 0 1 21.333333 21.333333V587.178667L949.909333 597.333333h-126.528A98.048 98.048 0 0 0 725.333333 695.381333V823.317333L716.714667 832z m-53.568-403.114667c-29.568 0-53.76-6.528-72.96-19.968-20.736-13.824-30.72-33.024-30.72-57.216s10.368-42.624 31.488-55.296c8.064-4.608 29.184-12.288 62.976-23.04 30.336-9.216 48-15.36 53.376-18.048 16.896-8.448 25.728-19.968 25.728-34.56 0-11.52-6.144-20.352-17.664-27.264-11.52-6.528-27.648-9.984-47.616-9.984-22.656 0-39.168 4.224-49.92 11.904-11.904 8.832-19.2 23.808-22.272 44.544h-44.544c1.92-34.944 14.592-60.288 37.632-76.416 18.816-13.056 45.312-19.584 79.104-19.584 34.944 0 62.208 7.296 81.408 21.12 19.2 14.208 28.8 33.792 28.8 58.368 0 25.344-11.904 44.928-35.712 59.136-10.752 6.144-34.56 15.36-71.808 26.88-25.344 8.064-41.088 13.824-46.848 16.896-13.056 6.912-19.2 16.512-19.2 28.032 0 13.056 5.376 22.656 16.896 28.416 9.216 4.992 22.272 7.296 39.552 7.296 19.968 0 35.328-3.456 45.312-11.136 9.984-7.296 17.28-19.584 21.12-36.48h44.544c-2.688 29.952-13.824 52.224-33.024 66.432-18.048 13.44-43.392 19.968-75.648 19.968z m-507.648-5.376H100.586667l91.776-132.48L94.442667 149.333333h54.912l70.656 105.984L290.666667 149.333333h54.912l-98.688 141.696 92.544 132.48h-54.912l-64.512-96.768-64.512 96.768z m257.408 0h-44.544V149.333333h171.434666v38.4h-126.890666V423.509333z"  horiz-adv-x="1024" />

    
    <glyph glyph-name="CSVtubiao" unicode="&#59088;" d="M743.36 896L1024 613.546667V-42.666667a85.333333 85.333333 0 0 0-85.333333-85.333333H213.333333a85.333333 85.333333 0 0 0-85.333333 85.333333v106.666667H42.666667a42.666667 42.666667 0 0 0-42.666667 42.666667V469.333333a42.666667 42.666667 0 0 0 42.666667 42.666667h85.333333V810.666667a85.333333 85.333333 0 0 0 85.333333 85.333333h530.026667z m-26.645333-64H213.333333a21.333333 21.333333 0 0 1-21.333333-21.333333v-298.666667h640a42.666667 42.666667 0 0 0 42.666667-42.666667v-362.666666a42.666667 42.666667 0 0 0-42.666667-42.666667H192v-106.666667a21.333333 21.333333 0 0 1 21.333333-21.333333h725.333334a21.333333 21.333333 0 0 1 21.333333 21.333333V587.178667L949.909333 597.333333h-126.528A98.048 98.048 0 0 0 725.333333 695.381333V823.317333L716.714667 832zM191.189333 428.885333c-43.776 0-77.184-14.208-100.224-43.392-20.352-25.344-30.336-58.752-30.336-99.456 0-41.472 9.6-74.496 29.184-99.072 22.272-28.416 56.448-43.008 102.144-43.008 29.568 0 54.912 8.448 76.032 25.344 22.656 18.048 36.864 43.008 43.008 75.264h-43.776c-5.376-20.736-14.592-36.48-27.648-46.848-12.288-9.216-28.416-14.208-48-14.208-29.952 0-52.224 9.6-66.432 28.032-13.056 17.28-19.584 42.24-19.584 74.496 0 31.488 6.528 56.064 19.968 73.728 14.592 19.968 36.096 29.568 64.896 29.568 19.2 0 34.944-3.84 47.232-12.288 12.672-8.448 21.12-21.504 25.728-39.552h43.776c-4.224 27.648-16.128 49.92-36.096 66.048-20.736 16.896-47.616 25.344-79.872 25.344z m258.816 0c-29.568 0-53.76-6.528-72.96-19.968-20.736-13.824-30.72-33.024-30.72-57.216s10.368-42.624 31.488-55.296c8.064-4.608 29.184-12.288 62.976-23.04 30.336-9.216 48-15.36 53.376-18.048 16.896-8.448 25.728-19.968 25.728-34.56 0-11.52-6.144-20.352-17.664-27.264-11.52-6.528-27.648-9.984-47.616-9.984-22.656 0-39.168 4.224-49.92 11.904-11.904 8.832-19.2 23.808-22.272 44.544h-44.544c1.92-34.944 14.592-60.288 37.632-76.416 18.816-13.056 45.312-19.584 79.104-19.584 34.944 0 62.208 7.296 81.408 21.12 19.2 14.208 28.8 33.792 28.8 58.368 0 25.344-11.904 44.928-35.712 59.136-10.752 6.144-34.56 15.36-71.808 26.88-25.344 8.064-41.088 13.824-46.848 16.896-13.056 6.912-19.2 16.512-19.2 28.032 0 13.056 5.376 22.656 16.896 28.416 9.216 4.992 22.272 7.296 39.552 7.296 19.968 0 35.328-3.456 45.312-11.136 9.984-7.296 17.28-19.584 21.12-36.48h44.544c-2.688 29.952-13.824 52.224-33.024 66.432-18.048 13.44-43.392 19.968-75.648 19.968z m177.024-5.376h-48.768L675.797333 149.333333h54.144l97.536 274.176h-48.768l-75.264-223.488h-1.152l-75.264 223.488z"  horiz-adv-x="1024" />

    
    <glyph glyph-name="shangchuan" unicode="&#59828;" d="M256.270629 798.828921h327.151148c14.717362-0.012163 28.9482-5.230137 40.186913-14.741689l197.784319-167.267077a62.244711 62.244711 0 0 0 22.039553-47.533431v-521.201392c0-74.316597-0.827091-79.583223-77.101949-79.583224H256.270629c-76.262695 0-77.101949 5.230137-77.101949 79.583224v671.160365c0 74.304434 0.827091 79.583223 77.101949 79.583224z m0 0M384.713062 308.315053h81.24957v-83.36595a20.759995 20.759995 0 0 1 20.762427-20.762428h42.473577a20.759995 20.759995 0 0 1 20.762428 20.762428v83.36595h81.249569c8.076305 0.012163 15.410659 4.707123 18.804167 12.041478a20.751481 20.751481 0 0 1-2.992125 22.124696L523.798216 488.000665a20.767293 20.767293 0 0 1-31.672736 0L368.90102 342.469064a20.751481 20.751481 0 0 1-2.992125-22.124696c3.393507-7.322192 10.727862-12.029315 18.804167-12.029315z m0 0"  horiz-adv-x="1024" />

    
    <glyph glyph-name="wo-weixuanzhong" unicode="&#59824;" d="M235.873095 246.45348h552.25381c92.695055 0 139.036501-46.353609 139.036501-139.036502s-46.353609-139.036501-139.036501-139.036501H235.873095C143.190203-31.631686 96.836594 14.721923 96.836594 107.404815S143.190203 246.45348 235.873095 246.45348z m0 0M674.754564 698.361639c-45.052156 54.10151-101.306536 100.467282-162.791053 100.467282h-5.643683v-0.462199c-58.869449-2.615068-113.420993-47.618572-156.721662-100.017246a206.731502 206.731502 0 0 1-47.618572-121.643255c-4.293578-76.591099 33.387735-149.448123 98.375227-190.206702 64.987492-40.746416 146.991175-42.947939 214.058558-5.716661 67.067384 37.219114 108.592239 107.97192 108.385466 184.672487 0.012163 48.567295-16.9797 95.589875-48.044281 132.906294z m0 0M483.234247 795.179988c5.838292 1.508226 12.029315 0.54734 17.137821-2.651558 5.108506-3.211061 8.660134-8.368219 9.839955-14.27949 8.84258-48.530806 27.281854-170.344344-3.904358-201.518393-28.522491-28.522491-139.498699-11.992826-184.830607-3.782727-11.214387 1.848793-18.962287 12.223925-17.56353 23.499127a207.128019 207.128019 0 0 0 45.672475 101.926855 266.78807 266.78807 0 0 0 133.648244 96.806186z m0 0"  horiz-adv-x="1024" />

    
    <glyph glyph-name="dongtai-weixuanzhong" unicode="&#59825;" d="M511.963511 176.162872c0-114.637304 92.938317-207.575622 207.587784-207.575622 114.637304 0 207.575622 92.938317 207.575622 207.575622 0 114.649467-92.938317 207.587785-207.575622 207.587784-114.649467 0-207.587785-92.938317-207.587784-207.587784z m0 0M636.428607 653.443276c0-80.252194 65.048308-145.300502 145.300503-145.300502 80.252194 0 145.312666 65.060471 145.312665 145.300502 0 80.252194-65.060471 145.312666-145.312665 145.312666-80.252194-0.012163-145.300502-65.060471-145.300503-145.312666z m0 0M97.992089 115.006759c0-80.252194 65.060471-145.300502 145.312666-145.300503 80.252194 0 145.312666 65.048308 145.312665 145.300503 0 80.252194-65.060471 145.312666-145.312665 145.312665-80.252194 0-145.312666-65.060471-145.312666-145.312665z m0 0M96.873083 591.241136c0-114.637304 92.938317-207.575622 207.587785-207.575622 114.637304 0 207.575622 92.938317 207.575621 207.575622 0 114.649467-92.938317 207.587785-207.575621 207.587785C189.811401 798.828921 96.873083 705.890603 96.873083 591.241136z m0 0"  horiz-adv-x="1024" />

    
    <glyph glyph-name="xiaoyuan-weixuanzhong" unicode="&#59826;" d="M511.683759 341.410873c-15.447149 0-30.784829 2.602905-45.368397 7.687085L144.844386 460.560691C116.042143 470.583093 96.751452 497.743316 96.751452 528.23623s19.290691 57.640974 48.092934 67.67554l321.76289 111.511385c29.349582 10.180522 61.277744 10.180522 90.627327 0l321.629097-111.511385c28.826569-10.010239 48.153749-37.182625 48.153749-67.699866 0-30.517241-19.327181-57.677464-48.153749-67.687703l-321.872359-111.511385a138.127917 138.127917 0 0 0-45.307582-7.601943z m0 0M564.033781 281.580539c-33.935075-11.761727-70.850111-11.761727-104.785186 0L262.996829 349.706114a36.427296 36.427296 0 0 1-48.372686-34.470252v-86.017508c0.012163-45.806269 28.583307-86.747295 71.579898-102.547174l187.944363-69.122949a109.339054 109.339054 0 0 1 75.399114 0l187.944363 69.08646c42.996591 15.799879 71.567735 56.740904 71.579898 102.547174V315.333167c0.012163 11.786053-5.668009 22.854482-15.276865 29.69015a36.376211 36.376211 0 0 1-33.059331 4.755775l-196.701802-68.198553z m0 0"  horiz-adv-x="1024" />

    
    <glyph glyph-name="ziyuanku-weixuanzhong" unicode="&#59827;" d="M927.090427 388.640226V217.176876a207.368849 207.368849 0 0 0-60.742567-146.845217A207.368849 207.368849 0 0 0 719.502643 9.589091H304.339237C189.714096 9.637744 96.800105 102.539572 96.751452 217.176876V388.640226c0.048652 114.625141 92.962644 207.539132 207.587785 207.575622H719.502643c55.074558 0.060816 107.911105-21.796292 146.845217-60.742568a207.34209 207.34209 0 0 0 60.742567-146.833054z m0 0M655.853092 302.695697c-0.109468-17.149984-13.987576-31.028092-31.137559-31.13756H398.870921c-17.198636 0-31.13756 13.938923-31.137559 31.13756s13.938923 31.13756 31.137559 31.137559h225.856775c8.258751 0.012163 16.189098-3.259713 22.027391-9.110169a31.088907 31.088907 0 0 0 9.098005-22.02739z m0 0M719.332359 627.316918c32.183587-0.19461 63.856323-7.954673 92.500446-22.623383l-22.294979 42.145173a207.559809 207.559809 0 0 1-122.458184 101.270047 207.619409 207.619409 0 0 1-158.205561-14.997113L309.192317 627.316918h410.140042z m0 0"  horiz-adv-x="1024" />

    
    <glyph glyph-name="ziyuanku" unicode="&#59820;" d="M927.090427 388.640226V217.176876a207.368849 207.368849 0 0 0-60.742567-146.845217A207.368849 207.368849 0 0 0 719.502643 9.589091H304.339237C189.714096 9.637744 96.800105 102.539572 96.751452 217.176876V388.640226c0.048652 114.625141 92.962644 207.539132 207.587785 207.575622H719.502643c55.074558 0.060816 107.911105-21.796292 146.845217-60.742568a207.34209 207.34209 0 0 0 60.742567-146.833054z m0 0M655.853092 302.695697c-0.109468-17.149984-13.987576-31.028092-31.137559-31.13756H398.870921c-17.198636 0-31.13756 13.938923-31.137559 31.13756s13.938923 31.13756 31.137559 31.137559h225.856775c8.258751 0.012163 16.189098-3.259713 22.027391-9.110169a31.088907 31.088907 0 0 0 9.098005-22.02739z m0 0M719.332359 627.316918c32.183587-0.19461 63.856323-7.954673 92.500446-22.623383l-22.294979 42.145173a207.559809 207.559809 0 0 1-122.458184 101.270047 207.619409 207.619409 0 0 1-158.205561-14.997113L309.192317 627.316918h410.140042z m0 0"  horiz-adv-x="1024" />

    
    <glyph glyph-name="wo" unicode="&#59821;" d="M235.873095 246.45348h552.25381c92.695055 0 139.036501-46.353609 139.036501-139.036502s-46.353609-139.036501-139.036501-139.036501H235.873095C143.190203-31.631686 96.836594 14.721923 96.836594 107.404815S143.190203 246.45348 235.873095 246.45348z m0 0M674.754564 698.361639c-45.052156 54.10151-101.306536 100.467282-162.791053 100.467282h-5.643683v-0.462199c-58.869449-2.615068-113.420993-47.618572-156.721662-100.017246a206.731502 206.731502 0 0 1-47.618572-121.643255c-4.293578-76.591099 33.387735-149.448123 98.375227-190.206702 64.987492-40.746416 146.991175-42.947939 214.058558-5.716661 67.067384 37.219114 108.592239 107.97192 108.385466 184.672487 0.012163 48.567295-16.9797 95.589875-48.044281 132.906294z m0 0M483.234247 795.179988c5.838292 1.508226 12.029315 0.54734 17.137821-2.651558 5.108506-3.211061 8.660134-8.368219 9.839955-14.27949 8.84258-48.530806 27.281854-170.344344-3.904358-201.518393-28.522491-28.522491-139.498699-11.992826-184.830607-3.782727-11.214387 1.848793-18.962287 12.223925-17.56353 23.499127a207.128019 207.128019 0 0 0 45.672475 101.926855 266.78807 266.78807 0 0 0 133.648244 96.806186z m0 0"  horiz-adv-x="1024" />

    
    <glyph glyph-name="dongtai" unicode="&#59822;" d="M511.963511 176.162872c0-114.637304 92.938317-207.575622 207.587784-207.575622 114.637304 0 207.575622 92.938317 207.575622 207.575622 0 114.649467-92.938317 207.587785-207.575622 207.587784-114.649467 0-207.587785-92.938317-207.587784-207.587784z m0 0M636.428607 653.443276c0-80.252194 65.048308-145.300502 145.300503-145.300502 80.252194 0 145.312666 65.060471 145.312665 145.300502 0 80.252194-65.060471 145.312666-145.312665 145.312666-80.252194-0.012163-145.300502-65.060471-145.300503-145.312666z m0 0M97.992089 115.006759c0-80.252194 65.060471-145.300502 145.312666-145.300503 80.252194 0 145.312666 65.048308 145.312665 145.300503 0 80.252194-65.060471 145.312666-145.312665 145.312665-80.252194 0-145.312666-65.060471-145.312666-145.312665z m0 0M96.873083 591.241136c0-114.637304 92.938317-207.575622 207.587785-207.575622 114.637304 0 207.575622 92.938317 207.575621 207.575622 0 114.649467-92.938317 207.587785-207.575621 207.587785C189.811401 798.828921 96.873083 705.890603 96.873083 591.241136z m0 0"  horiz-adv-x="1024" />

    
    <glyph glyph-name="xiaoyuan" unicode="&#59823;" d="M511.683759 341.410873c-15.447149 0-30.784829 2.602905-45.368397 7.687085L144.844386 460.560691C116.042143 470.583093 96.751452 497.743316 96.751452 528.23623s19.290691 57.640974 48.092934 67.67554l321.76289 111.511385c29.349582 10.180522 61.277744 10.180522 90.627327 0l321.629097-111.511385c28.826569-10.010239 48.153749-37.182625 48.153749-67.699866 0-30.517241-19.327181-57.677464-48.153749-67.687703l-321.872359-111.511385a138.127917 138.127917 0 0 0-45.307582-7.601943z m0 0M564.033781 281.580539c-33.935075-11.761727-70.850111-11.761727-104.785186 0L262.996829 349.706114a36.427296 36.427296 0 0 1-48.372686-34.470252v-86.017508c0.012163-45.806269 28.583307-86.747295 71.579898-102.547174l187.944363-69.122949a109.339054 109.339054 0 0 1 75.399114 0l187.944363 69.08646c42.996591 15.799879 71.567735 56.740904 71.579898 102.547174V315.333167c0.012163 11.786053-5.668009 22.854482-15.276865 29.69015a36.376211 36.376211 0 0 1-33.059331 4.755775l-196.701802-68.198553z m0 0"  horiz-adv-x="1024" />

    
    <glyph glyph-name="shijianduanqingjia" unicode="&#59819;" d="M354.46387591 82.42584353999996H1472.44155921l141.40321358-201.68066405c55.2385829-76.14988167 20.99527971-138.90477458-73.6304479-138.90477458h-1266.01540598c-94.4787623 0-125.50978578 60.25645391-67.77276569 136.46932174-0.83981125 0.83981125 148.10070708 204.20009604 148.10070887 204.20009783z m137.24614687 714.61635697a74.82717954 74.82717954 0 0 1 75.331067 74.47025918V997.02224547h-105.45929304a197.06170123 197.06170123 0 0 1-45.1818444-5.017871v-119.67309833a74.99514142 74.99514142 0 0 1 75.31007044-75.28907563z m643.48434806 0a74.80618475 74.80618475 0 0 1 75.31007041 74.47025918V992.00437447A195.25610817 195.25610817 0 0 1 1166.1204186 997.02224547h-106.23611817v-124.69096933a74.99514142 74.99514142 0 0 1 75.31007041-75.28907563z m0 0M1252.3480354 978.63038048v-106.29910434a117.5735693 117.5735693 0 0 0-117.15366456-117.13266975 117.5735693 117.5735693 0 0 0-117.13266796 117.13266975V997.02224547H614.72137137v-124.69096933a117.5735693 117.5735693 0 0 0-117.15366454-117.13266975 117.5735693 117.5735693 0 0 0-117.15366457 117.13266975V977.76957443a211.56944069 211.56944069 0 0 1-124.66997454-192.46373497v-701.24236479c0-116.2928585 95.38155793-210.85559997 212.51422771-210.85559997h698.722931c116.31385327 0 212.55621907 95.40255452 212.55621727 210.85559997v701.24236479c-0.83981125 86.20662202-52.69815435 159.83706992-127.1894083 193.32454102z m0 0M1238.13423011 71.52929194000001a75.70898037 75.70898037 0 0 0-76.21286604-75.31007045H458.99937678c-41.84359413 0-76.12888691 34.30628758-76.1288869 75.31007045V645.58224841H1237.29442063v-574.05295647z m0 0M541.06992686 505.73268503h131.38846462v-130.44367581h-131.38846462z m204.20009784 0h131.3884646v-130.44367581h-131.3884646z m204.99791772 0h131.38846459v-130.44367581h-131.38846459z m-409.19801556-240.06003558h131.38846462v-130.54865335h-131.38846462z m204.20009784 0h131.3884646v-130.54865335h-131.3884646z m204.99791772 0h131.38846459v-130.54865335h-131.38846459z m0 0M857.48979742 221.33061812000005A70.18722192 70.18722192 0 0 0 927.67701934 291.58082618000003h523.83224632c39.32416033 0 76.12888691-31.80785035 81.16775447-70.29219946 0 0 5.01787276-34.30628758 5.01787097-55.25957769v-250.99857677a70.16622714 70.16622714 0 0 0-70.29219765-70.29219766H928.51683061a70.18722192 70.18722192 0 0 0-70.29219767 70.29219766V221.33061812000005z m0 0M901.72685299 292.44163225h512.95669132a70.16622714 70.16622714 0 0 0 70.29219766-70.29219766v-303.73872252a70.16622714 70.16622714 0 0 0-70.29219766-70.29219765H901.72685299a70.16622714 70.16622714 0 0 0-70.29219765 70.29219765V221.33061812000005a70.37618038 70.37618038 0 0 0 70.29219765 71.11101413z m0 0M1015.8362033 69.84966941000005a152.1108067 152.1108067 0 0 1 303.75971549-12.34522426 19.48362087 19.48362087 0 0 0-0.18895667 3.98910301l0.69284415 13.37399403a19.02172479 19.02172479 0 0 0 37.98046158-1.99455151l-0.16796189-3.02332127h0.18895671A190.15425446 190.15425446 0 1 0 1167.98899957 260.08790481999995a19.02172479 19.02172479 0 0 0 19.12670053-19.10570396v-138.19093562a38.02245296 38.02245296 0 1 0-38.06444436 0v40.73084345a76.06590074 76.06590074 0 1 1 93.86989909-87.1933986 20.63836114 20.63836114 0 0 0 0 4.82891432l1.32270215 13.45797493a19.02172479 19.02172479 0 1 0 37.79150493-3.96810821v-0.71384076h0.16796191A114.08835374 114.08835374 0 1 0 1148.94628002 182.40536771999996v38.37937334a152.13180148 152.13180148 0 0 1-133.11007672-150.93507165z m0 0"  horiz-adv-x="1714" />

    
    <glyph glyph-name="shengxushaixuan" unicode="&#59818;" d="M512.66459241 670.42534744A31.56464277 31.56464277 0 0 0 535.13481252 660.86920766l159.01248439-158.92853546a31.8584626 31.8584626 0 0 0-45.03837979-45.03838036L512.66459241 593.4725391100001l-136.66818741-136.6961698a31.8584626 31.8584626 0 1 0-45.03837979 45.10833693L490.18038108 660.86920766A31.50867684 31.50867684 0 0 0 512.66459241 670.42534744zM353.44223654 320.17813906000003a31.77451424 31.77451424 0 0 0 22.55416847-9.5561392l136.6681874-136.44432473L649.30479681 310.84586251999997a31.8584626 31.8584626 0 0 0 44.77254294-44.99640561L535.13481252 106.89293788999998a31.80249666 31.80249666 0 0 0-44.98241441 0L331.19587965 265.86344812000004a31.81648843 31.81648843 0 0 0 22.48421132 54.31469094z"  horiz-adv-x="1024" />

    
    <glyph glyph-name="jiangxushaixuan" unicode="&#59817;" d="M511.35813695 115.47623678000002a29.59185207 29.59185207 0 0 0-21.09206435 8.94576374L341.20498891 273.44373292a29.86730817 29.86730817 0 0 0 0.51156138 41.71191915 29.86730817 29.86730817 0 0 0 41.71191863 0.51156137L511.35813695 187.55390766999994l128.13953928 128.13953928A29.86730817 29.86730817 0 1 0 681.69492272 273.44373292l-149.27095494-149.02173239a29.52626725 29.52626725 0 0 0-21.06583083-8.94576375zM660.61597514 443.83298625a29.73613851 29.73613851 0 0 0-21.13141566 8.95888104L511.35813695 580.7084180300001l-128.11330524-128.13953928a29.86730817 29.86730817 0 0 0-40.54451001 1.61338569 29.86730817 29.86730817 0 0 0-1.49533279 40.55762675L490.25295533 643.7878576A29.78860606 29.78860606 0 0 0 511.35813695 652.5237501199999a29.76237202 29.76237202 0 0 0 21.07894758-8.73589251L681.48505146 494.73989119a29.82795685 29.82795685 0 0 0 6.46665903-32.50381606 29.84107414 29.84107414 0 0 0-27.54560712-18.36373757z"  horiz-adv-x="1024" />

    
    <glyph glyph-name="ChevronDown2-24px" unicode="&#59103;" d="M236.8 545.578667a30.634667 30.634667 0 0 1 0-43.904l252.842667-279.253334a32.042667 32.042667 0 0 1 44.714666 0l252.842667 279.253334a30.634667 30.634667 0 0 1 0 43.904 32.042667 32.042667 0 0 1-44.714667 0l-230.4-257.322667-230.570666 257.322667a32 32 0 0 1-44.714667 0z"  horiz-adv-x="1024" />

    
    <glyph glyph-name="ChevronUp2-24px" unicode="&#59104;" d="M236.8 222.421333a30.634667 30.634667 0 0 0 0 43.904l252.842667 279.253334a32.042667 32.042667 0 0 0 44.714666 0l252.842667-279.253334a30.634667 30.634667 0 0 0 0-43.904 32.042667 32.042667 0 0 0-44.714667 0l-230.4 257.322667-230.4-257.322667a32.042667 32.042667 0 0 0-44.885333 0z"  horiz-adv-x="1024" />

    
    <glyph glyph-name="ChevronUp1-24px" unicode="&#59101;" d="M321.408 278.570667a28.458667 28.458667 0 0 0 0 40.021333l170.666667 170.666667a28.458667 28.458667 0 0 0 40.234666 0l170.666667-170.666667a28.458667 28.458667 0 0 0-40.234667-40.234667L512 429.141333l-150.570667-150.570666a28.458667 28.458667 0 0 0-40.021333 0z"  horiz-adv-x="1024" />

    
    <glyph glyph-name="18" unicode="&#59154;" d="M272 700h140c44.182 0 80-35.818 80-80v-140c0-44.182-35.818-80-80-80h-140c-44.182 0-80 35.818-80 80v140c0 44.182 35.818 80 80 80zM612 700h140c44.184 0 80-35.818 80-80v-140c0-44.182-35.816-80-80-80h-140c-44.184 0-80 35.818-80 80v140c0 44.182 35.816 80 80 80zM272 360h140c44.182 0 80-35.816 80-80v-140c0-44.184-35.818-80-80-80h-140c-44.182 0-80 35.816-80 80v140c0 44.184 35.818 80 80 80zM612 360h140c44.184 0 80-35.816 80-80v-140c0-44.184-35.816-80-80-80h-140c-44.184 0-80 35.816-80 80v140c0 44.184 35.816 80 80 80z"  horiz-adv-x="1024" />

    
    <glyph glyph-name="291" unicode="&#59205;" d="M342 704c82.842 0 150-67.158 150-150v-120c0-16.568-13.432-30-30-30h-120c-82.842 0-150 67.158-150 150s67.158 150 150 150zM682 704c82.842 0 150-67.158 150-150s-67.158-150-150-150h-120c-16.568 0-30 13.432-30 30v120c0 82.842 67.158 150 150 150zM342 364h120c16.568 0 30-13.432 30-30v-120c0-82.844-67.158-150-150-150s-150 67.156-150 150 67.158 150 150 150zM562 364h120c82.842 0 150-67.156 150-150s-67.158-150-150-150-150 67.156-150 150v120c0 16.568 13.432 30 30 30z"  horiz-adv-x="1024" />

    
    <glyph glyph-name="folder-01" unicode="&#59175;" d="M960 510H64V650h840c30.93 0 56-25.07 56-56v-84zM400 650H64v56c0 30.93 25.07 56 56 56h199.19c23.34 0 44.24-14.48 52.43-36.34L400 650zM820 322.98H204c-15.46 0-28 12.54-28 28v224c0 15.46 12.54 28 28 28h616c15.46 0 28-12.54 28-28v-224c0-15.47-12.54-28-28-28zM904 6H120c-30.93 0-56 25.07-56 56V510h896v-448c0-30.93-25.07-56-56-56z"  horiz-adv-x="1024" />

    
    <glyph glyph-name="camera-01" unicode="&#59098;" d="M120 664h504c30.93 0 56-25.07 56-56v-448c0-30.93-25.07-56-56-56H120c-30.93 0-56 25.07-56 56V608c0 30.93 25.07 56 56 56zM680 468v-168l210-112V580zM890 580v-392h56c7.73 0 14 6.27 14 14V566c0 7.73-6.27 14-14 14h-56zM212 516m-64 0a64 64 0 1 1 128 0 64 64 0 1 1-128 0ZM568 272h28v-56h-28z"  horiz-adv-x="1024" />

    
    <glyph glyph-name="degree-01" unicode="&#59100;" d="M248.89 395.85v-325.09c72.08-57.8 163.52-92.46 263.11-92.46s191.03 34.66 263.11 92.46V395.85H248.89zM129.8 144h-24.62c-7.73 0-14 6.27-14 14v77.24c0 7.73 6.27 14 14 14h24.62c7.73 0 14-6.27 14-14V158c0-7.74-6.27-14-14-14zM117.49 237.39c-7.27 0-13.16 5.89-13.16 13.16v236.8c0 7.27 5.89 13.16 13.16 13.16 7.27 0 13.16-5.89 13.16-13.16v-236.8c-0.01-7.27-5.9-13.16-13.16-13.16zM498.62 242.85L76.94 491.79c-17.25 10.18-17.25 35.13 0 45.31l421.69 248.94c8.25 4.87 18.5 4.87 26.75 0L947.06 537.1c17.25-10.18 17.25-35.13 0-45.31L525.38 242.85a26.333 26.333 0 0 0-26.76 0z"  horiz-adv-x="1024" />

    
    <glyph glyph-name="customerservice-01" unicode="&#59128;" d="M909.62 393.61c-11.26 0-20.39 9.12-20.39 20.39 0 208.01-169.22 377.23-377.23 377.23-208 0-377.23-169.22-377.23-377.23 0-11.26-9.12-20.39-20.39-20.39S94 402.73 94 414C94 644.48 281.51 832 512 832s418-187.52 418-418c0-11.27-9.12-20.39-20.38-20.39zM590.38-52.33c-11.84 0-21.43 9.59-21.43 21.43s9.59 21.43 21.43 21.43c117.53 0 219.59 75.44 253.95 187.72 3.46 11.32 15.43 17.66 26.77 14.22 11.32-3.47 17.68-15.45 14.22-26.77-39.92-130.41-158.44-218.03-294.94-218.03zM180.75 157.7H164c-38.66 0-70 31.34-70 70V401.2c0 38.66 31.34 70 70 70h16.75c38.66 0 70-31.34 70-70v-173.5c0-38.66-31.34-70-70-70zM433.62-36v22.38c0 15.46 12.54 28 28 28h100.75c15.46 0 28-12.54 28-28V-36c0-15.46-12.54-28-28-28H461.62c-15.46 0-28 12.54-28 28zM860 157.7h-16.75c-38.66 0-70 31.34-70 70V401.2c0 38.66 31.34 70 70 70H860c38.66 0 70-31.34 70-70v-173.5c0-38.66-31.34-70-70-70z"  horiz-adv-x="1024" />

    
    <glyph glyph-name="medal-01" unicode="&#59141;" d="M736 720H288c-15.46 0-28 12.54-28 28V804c0 15.46 12.54 28 28 28h448c15.46 0 28-12.54 28-28v-56c0-15.46-12.54-28-28-28zM512 720H344v-217.91C392.32 533.62 450 552 512 552V720zM680 502.09V720H512v-168c62 0 119.68-18.38 168-49.91zM680 502.09C631.68 533.62 574 552 512 552s-119.68-18.38-168-49.91C259.74 447.13 204 352.1 204 244c0-170.1 137.9-308 308-308s308 137.9 308 308c0 108.1-55.74 203.13-140 258.09zM512 244m-224 0a224 224 0 1 1 448 0 224 224 0 1 1-448 0ZM524.55 358.56l29.68-60.13a14 14 0 0 1 10.54-7.66l66.36-9.64c11.48-1.67 16.07-15.78 7.76-23.88l-48.02-46.81a14 14 0 0 1-4.03-12.39l11.34-66.09c1.96-11.44-10.04-20.16-20.31-14.76l-59.35 31.2a14.025 14.025 0 0 1-13.03 0l-59.35-31.2c-10.27-5.4-22.27 3.32-20.31 14.76l11.34 66.09c0.78 4.54-0.73 9.18-4.03 12.39l-48.02 46.81c-8.31 8.1-3.72 22.21 7.76 23.88l66.36 9.64a14 14 0 0 1 10.54 7.66l29.68 60.13c5.12 10.41 19.96 10.41 25.09 0zM505 720h14v-168h-14z"  horiz-adv-x="1024" />

    
    </font>
</defs>
</svg>
